<svg width="410" height="410" viewBox="0 0 410 410" fill="none" xmlns="http://www.w3.org/2000/svg">
<g filter="url(#filter0_d)">
<circle cx="205" cy="200" r="200" fill="#F8F8FF"/>
</g>
<path d="M141.736 119V93.44H162.436V119H157.504V97.796H146.668V119H141.736ZM178.656 119.36C177.168 119.36 175.872 119.024 174.768 118.352C173.664 117.68 172.8 116.792 172.176 115.688V126.668H167.352V100.136H171.564V103.376C172.26 102.272 173.16 101.408 174.264 100.784C175.392 100.136 176.664 99.812 178.08 99.812C179.784 99.812 181.296 100.256 182.616 101.144C183.936 102.008 184.98 103.184 185.748 104.672C186.516 106.136 186.9 107.756 186.9 109.532C186.9 111.38 186.54 113.048 185.82 114.536C185.124 116 184.152 117.176 182.904 118.064C181.68 118.928 180.264 119.36 178.656 119.36ZM177.036 115.256C178.02 115.256 178.872 114.992 179.592 114.464C180.336 113.912 180.912 113.204 181.32 112.34C181.752 111.452 181.968 110.516 181.968 109.532C181.968 108.476 181.74 107.528 181.284 106.688C180.828 105.824 180.204 105.152 179.412 104.672C178.644 104.168 177.756 103.916 176.748 103.916C175.836 103.916 174.924 104.216 174.012 104.816C173.1 105.416 172.488 106.172 172.176 107.084V111.512C172.608 112.568 173.268 113.456 174.156 114.176C175.044 114.896 176.004 115.256 177.036 115.256ZM190.169 119V100.172H194.993V112.556L203.453 100.136H207.845V119H203.021V106.904L194.669 119H190.169ZM210.879 119.252V114.968C211.647 114.944 212.307 114.692 212.859 114.212C213.435 113.732 213.891 112.856 214.227 111.584C214.563 110.312 214.779 108.476 214.875 106.076L215.127 100.136H229.275V119H224.451V104.348H219.375L219.303 106.544C219.159 109.832 218.763 112.4 218.115 114.248C217.491 116.072 216.579 117.356 215.379 118.1C214.179 118.844 212.679 119.228 210.879 119.252ZM242.405 119.36C240.365 119.36 238.601 118.916 237.113 118.028C235.649 117.14 234.509 115.964 233.693 114.5C232.877 113.012 232.469 111.404 232.469 109.676C232.469 107.9 232.865 106.268 233.657 104.78C234.473 103.268 235.625 102.068 237.113 101.18C238.601 100.268 240.377 99.812 242.441 99.812C244.505 99.812 246.269 100.268 247.733 101.18C249.197 102.068 250.313 103.256 251.081 104.744C251.873 106.208 252.269 107.792 252.269 109.496C252.269 110.12 252.233 110.66 252.161 111.116H237.581C237.701 112.58 238.241 113.732 239.201 114.572C240.185 115.412 241.313 115.832 242.585 115.832C243.545 115.832 244.445 115.604 245.285 115.148C246.149 114.668 246.737 114.044 247.049 113.276L251.189 114.428C250.493 115.868 249.377 117.056 247.841 117.992C246.305 118.904 244.493 119.36 242.405 119.36ZM237.473 108.056H247.337C247.193 106.64 246.653 105.5 245.717 104.636C244.805 103.748 243.689 103.304 242.369 103.304C241.073 103.304 239.957 103.748 239.021 104.636C238.109 105.5 237.593 106.64 237.473 108.056ZM236.897 97.22V92.936H240.893V97.22H236.897ZM243.809 97.22V92.936H247.805V97.22H243.809ZM259.564 119V104.348H253.588V100.136H270.4V104.348H264.388V119H259.564Z" fill="#00204A"/>
<path d="M154.5 293H254.5C256.43 293 258 294.57 258 296.5C258 298.43 256.43 300 254.5 300H154.5C152.57 300 151 298.43 151 296.5C151 294.56 152.57 293 154.5 293Z" fill="url(#paint0_linear)"/>
<path d="M257.97 263.88C258.34 259.1 254.89 254.18 247.46 248.92C246.27 248.05 244.94 247.4 243.57 246.88L219.02 238.05C218.11 230.44 214.3 209.17 201.1 202.68C199.01 201.66 196.52 201.8 194.48 203C192.4 204.23 191.13 206.42 191 208.83C190.56 219.31 190.32 225.24 190.19 228.64L178.34 226.03C178.3 225.99 178.3 225.99 178.22 225.99L158.08 208.1C156.71 206.89 154.72 206.74 153.15 207.78C151.62 208.79 150.95 210.75 151.56 212.43L160.51 238.83C160.82 239.75 161.3 240.55 161.95 241.19C162.56 241.8 163.36 242.3 164.2 242.59L247.01 272.34C248.54 272.86 250.22 272.78 251.72 272.05C255.44 270.21 257.72 267.25 257.97 263.88ZM249.04 265.28L167.33 235.95L162.56 221.88L173.44 231.52C174.35 232.36 175.53 232.92 176.76 233.22L190.79 236.31C192.39 236.68 194.08 236.3 195.35 235.24C196.66 234.24 197.43 232.71 197.48 231.06C197.57 228.38 197.76 222.49 198.29 209.57C208.58 215.16 211.41 235.68 211.85 239.81C212.1 242.06 213.58 243.93 215.72 244.75L241.04 253.81C241.8 254.12 242.53 254.45 243.21 254.9C250.57 260.1 250.74 262.88 250.7 263.39C250.61 264.16 249.65 264.9 249.04 265.28Z" fill="url(#paint1_linear)"/>
<defs>
<filter id="filter0_d" x="0" y="0" width="410" height="410" filterUnits="userSpaceOnUse" color-interpolation-filters="sRGB">
<feFlood flood-opacity="0" result="BackgroundImageFix"/>
<feColorMatrix in="SourceAlpha" type="matrix" values="0 0 0 0 0 0 0 0 0 0 0 0 0 0 0 0 0 0 127 0"/>
<feOffset dy="5"/>
<feGaussianBlur stdDeviation="2.5"/>
<feColorMatrix type="matrix" values="0 0 0 0 0 0 0 0 0 0 0 0 0 0 0 0 0 0 0.25 0"/>
<feBlend mode="normal" in2="BackgroundImageFix" result="effect1_dropShadow"/>
<feBlend mode="normal" in="SourceGraphic" in2="effect1_dropShadow" result="shape"/>
</filter>
<linearGradient id="paint0_linear" x1="151" y1="296.497" x2="258" y2="296.497" gradientUnits="userSpaceOnUse">
<stop stop-color="#00BBF0"/>
<stop offset="0.5" stop-color="#233C96"/>
<stop offset="1" stop-color="#00204A"/>
</linearGradient>
<linearGradient id="paint1_linear" x1="159.868" y1="200.862" x2="244.174" y2="280.533" gradientUnits="userSpaceOnUse">
<stop stop-color="#00BBF0"/>
<stop offset="0.5" stop-color="#233C96"/>
<stop offset="1" stop-color="#00204A"/>
</linearGradient>
</defs>
</svg>
