<svg width="310" height="34" viewBox="0 0 310 34" fill="none" xmlns="http://www.w3.org/2000/svg">
<path d="M34.5236 20.6643H34.0519C33.8385 20.6643 33.6475 20.7877 33.5577 20.9896C33.5015 21.1242 33.4341 21.2701 33.3668 21.4047C31.1092 26.2507 26.1449 29.6048 20.4168 29.5263C16.8115 29.4702 13.5094 28.0456 11.0385 25.7347C12.6783 25.6338 14.408 25.3982 16.205 25.028C17.1485 24.8373 18.1144 24.6017 19.0803 24.3437L18.1593 26.1386C17.9684 26.5087 18.1144 26.9687 18.4962 27.1594C18.6085 27.2155 18.7209 27.2379 18.8444 27.2379C19.1252 27.2379 19.3835 27.0921 19.5183 26.8228L21.1918 23.5473C21.2255 23.4912 21.2367 23.4239 21.2592 23.3566C21.2816 23.2893 21.2929 23.2107 21.2929 23.1322C21.2929 22.9864 21.248 22.863 21.1806 22.7508C21.1581 22.7172 21.1469 22.6947 21.1244 22.6611C21.1244 22.6611 21.1132 22.6499 21.1132 22.6386C21.0458 22.5489 20.9559 22.4816 20.8548 22.4367L17.5416 20.8214C17.1709 20.6419 16.7104 20.7877 16.5307 21.1691C16.351 21.5393 16.497 21.9992 16.8789 22.1787L18.4513 22.9527C15.3402 23.7716 12.3414 24.2315 9.69073 24.2652C7.85999 21.9992 6.72561 19.1724 6.60206 16.0763C6.56837 15.1116 6.62453 14.1693 6.77054 13.2606C9.73566 10.9835 13.633 8.89696 17.9684 7.28161C22.1689 5.72236 26.055 4.84738 29.3346 4.5445C30.8621 5.75601 32.1425 7.2704 33.0635 9.00914C33.1421 9.16619 33.2207 9.31202 33.2994 9.46906C33.3892 9.64855 33.5689 9.77194 33.7823 9.77194H34.2653C34.6584 9.77194 34.9167 9.3681 34.7482 9.02036C34.7482 9.02036 34.7482 9.02036 34.7482 9.00914C33.9508 7.28161 32.8389 5.73357 31.4799 4.4211C31.6259 4.4211 31.7719 4.40989 31.9067 4.40989C36.0735 4.40989 38.8814 5.48678 39.5553 7.28161C39.6676 7.58449 39.9484 7.79763 40.2741 7.79763C40.7908 7.79763 41.1727 7.28162 40.993 6.79925C40.993 6.78804 40.9817 6.7656 40.9817 6.75438C40.0832 4.36502 37.0619 3.00768 32.4682 2.90672C31.6146 2.88428 30.7161 2.91793 29.7839 2.98524C27.0546 0.999709 23.6515 -0.133277 19.99 0.0125525C12.7906 0.326648 6.81546 5.56531 5.41153 12.4081C4.9735 12.7558 4.55793 13.1036 4.16483 13.4626C0.750449 16.5362 -0.631027 19.5425 0.267494 21.9319C1.16601 24.3213 4.18729 25.6786 8.78098 25.7796C8.84837 25.7796 8.92699 25.7796 9.00561 25.7796C11.8584 28.9878 16.0141 31.0182 20.6527 31.0182C27.1445 31.0182 32.7153 27.036 35.0402 21.3935C35.0402 21.3935 35.0402 21.3935 35.0402 21.3822C35.175 21.0457 34.9055 20.6643 34.5236 20.6643ZM20.6415 1.52694C23.1012 1.52694 25.4036 2.15513 27.4141 3.26568C24.258 3.71439 20.8549 4.60059 17.4517 5.86819C13.6779 7.2704 10.2074 9.04279 7.36581 10.9835C9.2527 5.48678 14.4866 1.52694 20.6415 1.52694ZM1.68266 21.4047C1.03124 19.6772 2.28917 17.2205 5.11951 14.6516C5.11951 14.7414 5.10827 14.8311 5.10827 14.9096C4.9735 18.3647 5.98433 21.5842 7.78137 24.2203C4.47931 23.9848 2.27793 22.9864 1.68266 21.4047Z" fill="#F8F8FF"/>
<path d="M42.6103 11.0507C41.9588 10.2991 40.7234 10.086 38.8477 10.4001C38.5445 10.445 38.2524 10.5459 37.9716 10.6693L33.041 12.9577C31.7831 11.9818 28.0767 9.43536 25.1677 10.4113C24.7072 10.5683 24.3591 10.9497 24.2355 11.4209C24.112 11.9033 24.2467 12.408 24.5837 12.7782C26.0662 14.3711 26.9086 15.2686 27.3916 15.7846L25.2576 17.1307C25.2463 17.1307 25.2463 17.1307 25.2351 17.1419L19.6194 17.4672C19.2375 17.4897 18.923 17.7589 18.8444 18.1403C18.7658 18.5105 18.9567 18.8919 19.2936 19.0489L24.5163 21.5953C24.696 21.6851 24.8869 21.7299 25.0779 21.7299C25.2576 21.7299 25.4485 21.6851 25.617 21.6066L42.2396 13.8776C42.5429 13.7317 42.7787 13.4737 42.891 13.1484C43.1718 12.3407 43.0708 11.5779 42.6103 11.0507ZM41.4983 12.5539L25.1003 20.1819L22.3149 18.8246L25.3474 18.6451C25.6058 18.6339 25.8641 18.5441 26.0887 18.4095L28.6158 16.8166C28.9078 16.6371 29.0988 16.3342 29.1324 15.9977C29.1774 15.6612 29.0651 15.3246 28.8292 15.0779C28.4473 14.674 27.605 13.7878 25.7742 11.8247C28.1216 11.1404 31.5697 13.7205 32.2436 14.259C32.6142 14.5506 33.1084 14.6067 33.5464 14.416L38.6231 12.0491C38.7803 11.9818 38.9376 11.9257 39.106 11.892C40.9592 11.5779 41.3973 11.9593 41.4646 12.0379C41.5657 12.1613 41.532 12.408 41.4983 12.5539Z" fill="#F8F8FF"/>
<path d="M54.3273 9.29547L52.7419 12.8075H50.7167L55.9127 1.35079C56.0968 0.8505 56.3423 0.500294 56.6594 0.300176C56.9764 0.100059 57.314 0 57.6822 0C58.0709 0 58.4186 0.100059 58.7153 0.300176C59.0119 0.500294 59.2574 0.8505 59.4517 1.35079L64.6579 12.8075H62.6327L61.0371 9.29547H54.3273ZM55.1456 7.4844H60.2188L57.6822 1.93114L55.1456 7.4844Z" fill="#F8F8FF"/>
<path d="M66.0592 1.81107V0H76.2875V1.81107H72.1041V12.8075H70.2425V1.81107H66.0592Z" fill="#F8F8FF"/>
<path d="M88.4693 10.9965V12.8075H81.2993C80.9208 12.8075 80.5424 12.7375 80.1844 12.5874C79.8264 12.4373 79.4991 12.2472 79.223 11.9971C78.9468 11.7469 78.7218 11.4567 78.5479 11.1065C78.3842 10.7563 78.2922 10.3961 78.2922 9.99588V0H80.1537V8.98529C80.1537 10.3261 80.8492 10.9965 82.2301 10.9965H88.4693Z" fill="#F8F8FF"/>
<path d="M93.4914 9.29547L91.9061 12.8075H89.8809L95.0768 1.35079C95.2609 0.8505 95.5064 0.500294 95.8235 0.300176C96.1406 0.100059 96.4781 0 96.8463 0C97.235 0 97.5828 0.100059 97.8794 0.300176C98.176 0.500294 98.4215 0.8505 98.6158 1.35079L103.822 12.8075H101.797L100.201 9.29547H93.4914ZM94.3097 7.4844H99.3829L96.8463 1.93114L94.3097 7.4844Z" fill="#F8F8FF"/>
<path d="M105.223 1.81107V0H115.452V1.81107H111.268V12.8075H109.407V1.81107H105.223Z" fill="#F8F8FF"/>
<path d="M120.474 9.29547L118.888 12.8075H116.863L122.059 1.35079C122.243 0.8505 122.489 0.500294 122.806 0.300176C123.123 0.100059 123.46 0 123.829 0C124.217 0 124.565 0.100059 124.862 0.300176C125.158 0.500294 125.404 0.8505 125.598 1.35079L130.804 12.8075H128.779L127.183 9.29547H120.474ZM121.292 7.4844H126.365L123.829 1.93114L121.292 7.4844Z" fill="#F8F8FF"/>
<path d="M54.3273 9.29547L52.7419 12.8075H50.7167L55.9127 1.35079C56.0968 0.8505 56.3423 0.500294 56.6594 0.300176C56.9764 0.100059 57.314 0 57.6822 0C58.0709 0 58.4186 0.100059 58.7153 0.300176C59.0119 0.500294 59.2574 0.8505 59.4517 1.35079L64.6579 12.8075H62.6327L61.0371 9.29547H54.3273ZM55.1456 7.4844H60.2188L57.6822 1.93114L55.1456 7.4844Z" fill="#F8F8FF"/>
<path d="M66.0592 1.81107V0H76.2875V1.81107H72.1041V12.8075H70.2425V1.81107H66.0592Z" fill="#F8F8FF"/>
<path d="M88.4693 10.9965V12.8075H81.2993C80.9208 12.8075 80.5424 12.7375 80.1844 12.5874C79.8264 12.4373 79.4991 12.2472 79.223 11.9971C78.9468 11.7469 78.7218 11.4567 78.5479 11.1065C78.3842 10.7563 78.2922 10.3961 78.2922 9.99588V0H80.1537V8.98529C80.1537 10.3261 80.8492 10.9965 82.2301 10.9965H88.4693Z" fill="#F8F8FF"/>
<path d="M93.4914 9.29547L91.9061 12.8075H89.8809L95.0768 1.35079C95.2609 0.8505 95.5064 0.500294 95.8235 0.300176C96.1406 0.100059 96.4781 0 96.8463 0C97.235 0 97.5828 0.100059 97.8794 0.300176C98.176 0.500294 98.4215 0.8505 98.6158 1.35079L103.822 12.8075H101.797L100.201 9.29547H93.4914ZM94.3097 7.4844H99.3829L96.8463 1.93114L94.3097 7.4844Z" fill="#F8F8FF"/>
<path d="M105.223 1.81107V0H115.452V1.81107H111.268V12.8075H109.407V1.81107H105.223Z" fill="#F8F8FF"/>
<path d="M120.474 9.29547L118.888 12.8075H116.863L122.059 1.35079C122.243 0.8505 122.489 0.500294 122.806 0.300176C123.123 0.100059 123.46 0 123.829 0C124.217 0 124.565 0.100059 124.862 0.300176C125.158 0.500294 125.404 0.8505 125.598 1.35079L130.804 12.8075H128.779L127.183 9.29547H120.474ZM121.292 7.4844H126.365L123.829 1.93114L121.292 7.4844Z" fill="#F8F8FF"/>
<path d="M54.3273 9.29547L52.7419 12.8075H50.7167L55.9127 1.35079C56.0968 0.8505 56.3423 0.500294 56.6594 0.300176C56.9764 0.100059 57.314 0 57.6822 0C58.0709 0 58.4186 0.100059 58.7153 0.300176C59.0119 0.500294 59.2574 0.8505 59.4517 1.35079L64.6579 12.8075H62.6327L61.0371 9.29547H54.3273ZM55.1456 7.4844H60.2188L57.6822 1.93114L55.1456 7.4844Z" fill="#F8F8FF"/>
<path d="M66.0592 1.81107V0H76.2875V1.81107H72.1041V12.8075H70.2425V1.81107H66.0592Z" fill="#F8F8FF"/>
<path d="M88.4693 10.9965V12.8075H81.2993C80.9208 12.8075 80.5424 12.7375 80.1844 12.5874C79.8264 12.4373 79.4991 12.2472 79.223 11.9971C78.9468 11.7469 78.7218 11.4567 78.5479 11.1065C78.3842 10.7563 78.2922 10.3961 78.2922 9.99588V0H80.1537V8.98529C80.1537 10.3261 80.8492 10.9965 82.2301 10.9965H88.4693Z" fill="#F8F8FF"/>
<path d="M93.4914 9.29547L91.9061 12.8075H89.8809L95.0768 1.35079C95.2609 0.8505 95.5064 0.500294 95.8235 0.300176C96.1406 0.100059 96.4781 0 96.8463 0C97.235 0 97.5828 0.100059 97.8794 0.300176C98.176 0.500294 98.4215 0.8505 98.6158 1.35079L103.822 12.8075H101.797L100.201 9.29547H93.4914ZM94.3097 7.4844H99.3829L96.8463 1.93114L94.3097 7.4844Z" fill="#F8F8FF"/>
<path d="M105.223 1.81107V0H115.452V1.81107H111.268V12.8075H109.407V1.81107H105.223Z" fill="#F8F8FF"/>
<path d="M120.474 9.29547L118.888 12.8075H116.863L122.059 1.35079C122.243 0.8505 122.489 0.500294 122.806 0.300176C123.123 0.100059 123.46 0 123.829 0C124.217 0 124.565 0.100059 124.862 0.300176C125.158 0.500294 125.404 0.8505 125.598 1.35079L130.804 12.8075H128.779L127.183 9.29547H120.474ZM121.292 7.4844H126.365L123.829 1.93114L121.292 7.4844Z" fill="#F8F8FF"/>
<path d="M60.2047 29.4368C60.0447 29.8771 59.8047 30.1972 59.5048 30.3874C59.2049 30.5775 58.855 30.6675 58.455 30.6675C58.0451 30.6675 57.6952 30.5775 57.3953 30.3874C57.0953 30.1972 56.8654 29.8871 56.7054 29.4368L52.5363 19.4709V30.6575H50.7167V19.7111C50.7167 19.2008 50.8967 18.7605 51.2566 18.4003C51.6165 18.0401 52.0564 17.86 52.5663 17.86C53.0462 17.86 53.4261 17.96 53.6861 18.1602C53.956 18.3603 54.146 18.6304 54.266 18.9606L58.445 28.9165L62.6241 18.9606C62.7441 18.6304 62.9341 18.3603 63.194 18.1602C63.4539 17.96 63.8339 17.86 64.3338 17.86C64.8436 17.86 65.2835 18.0401 65.6435 18.4003C66.0034 18.7605 66.1834 19.2008 66.1834 19.7111V30.6675H64.3638V19.4709L60.2047 29.4368Z" fill="#F8F8FF"/>
<path d="M77.8308 24.4244C77.8308 24.7045 77.7708 24.9647 77.6409 25.2148C77.5109 25.465 77.3509 25.6851 77.151 25.8752C76.951 26.0653 76.7211 26.2254 76.4611 26.3355C76.2012 26.4455 75.9312 26.5056 75.6513 26.5056H69.6926V27.7163C69.6926 28.6568 70.1625 29.1271 71.0923 29.1271H77.8308V30.658H70.3524C70.0725 30.658 69.8026 30.598 69.5526 30.4879C69.2927 30.3779 69.0627 30.2278 68.8528 30.0377C68.6428 29.8475 68.4729 29.6274 68.3429 29.3773C68.2129 29.1271 68.1529 28.857 68.1529 28.5968V23.1336C68.1529 22.8534 68.2129 22.5933 68.3429 22.3431C68.4729 22.093 68.6428 21.8729 68.8528 21.6827C69.0627 21.4926 69.2927 21.3325 69.5526 21.2225C69.8026 21.1124 70.0725 21.0524 70.3524 21.0524H75.6413C75.9212 21.0524 76.1912 21.1124 76.4511 21.2225C76.7111 21.3325 76.941 21.4926 77.141 21.6827C77.3409 21.8729 77.5009 22.093 77.6309 22.3431C77.7608 22.5933 77.8208 22.8534 77.8208 23.1336V24.4244H77.8308ZM75.0914 24.9847C75.2514 24.9847 75.4113 24.9547 75.5613 24.8946C75.7113 24.8346 75.8412 24.7445 75.9512 24.6345C76.0612 24.5244 76.1512 24.3943 76.2112 24.2543C76.2712 24.1142 76.3011 23.9541 76.3011 23.784C76.3011 23.6239 76.2712 23.4638 76.2112 23.3137C76.1512 23.1636 76.0612 23.0435 75.9512 22.9335C75.8412 22.8234 75.7113 22.7434 75.5613 22.6833C75.4113 22.6233 75.2614 22.5933 75.0914 22.5933H71.0923C70.1525 22.5933 69.6926 23.0736 69.6926 24.0241V24.9947H75.0914V24.9847Z" fill="#F8F8FF"/>
<path d="M87.0288 25.0947L90.9179 21.0524H93.0475L88.4585 25.8252L93.3374 30.668H91.1979L87.0388 26.5956V30.668H85.5091V26.5956L81.35 30.668H79.2105L84.0894 25.8252L79.5004 21.0524H81.63L85.5191 25.0947V21.0524H87.0488V25.0947H87.0288Z" fill="#F8F8FF"/>
<path d="M102.175 17.86C102.455 17.86 102.725 17.91 102.975 18.0201C103.225 18.1301 103.465 18.2802 103.675 18.4804C103.885 18.6805 104.055 18.9006 104.185 19.1407C104.315 19.3909 104.375 19.651 104.375 19.9312V28.6063C104.375 28.8765 104.315 29.1366 104.185 29.3868C104.055 29.6369 103.885 29.857 103.675 30.0472C103.465 30.2373 103.235 30.3874 102.975 30.4974C102.715 30.6075 102.455 30.6675 102.175 30.6675H96.8866C96.6067 30.6675 96.3367 30.6075 96.0868 30.4974C95.8368 30.3874 95.5969 30.2373 95.3969 30.0472C95.187 29.857 95.027 29.6369 94.897 29.3868C94.7671 29.1366 94.7071 28.8665 94.7071 28.6063V23.1431C94.7071 22.8629 94.7671 22.6028 94.897 22.3526C95.027 22.1025 95.187 21.8824 95.3969 21.6922C95.6069 21.5021 95.8368 21.342 96.0868 21.232C96.3467 21.1219 96.6067 21.0619 96.8866 21.0619H102.845V20.8017C102.845 19.8712 102.375 19.4009 101.446 19.4009H95.147V17.87H102.175V17.86ZM102.845 24.0136C102.845 23.063 102.375 22.5828 101.446 22.5828H97.6664C96.7067 22.5828 96.2368 23.063 96.2368 24.0136V27.7258C96.2368 28.6663 96.7167 29.1366 97.6664 29.1366H101.446C102.385 29.1366 102.845 28.6663 102.845 27.7258V24.0136Z" fill="#F8F8FF"/>
<path d="M114.483 21.0524H116.012V31.9288C116.012 32.1989 115.952 32.4591 115.822 32.7092C115.692 32.9594 115.533 33.1795 115.323 33.3696C115.113 33.5597 114.883 33.7098 114.633 33.8199C114.383 33.9299 114.113 33.99 113.833 33.99H106.784V32.4591H113.053C114.013 32.4591 114.483 31.9888 114.483 31.0482V30.658H108.534C108.254 30.658 107.984 30.598 107.734 30.4879C107.474 30.3779 107.244 30.2278 107.034 30.0377C106.824 29.8475 106.654 29.6274 106.524 29.3773C106.395 29.1271 106.335 28.857 106.335 28.5968V21.0524H107.864V27.7263C107.864 28.6668 108.334 29.1371 109.264 29.1371H113.043C114.003 29.1371 114.473 28.6668 114.473 27.7263V21.0524H114.483Z" fill="#F8F8FF"/>
<path d="M126.12 26.5156H119.512V30.668H117.982V21.0524H119.512V24.9847H126.12V21.0524H127.65V30.668H126.12V26.5156Z" fill="#F8F8FF"/>
<path d="M136.318 22.5833H130.049V21.0524H137.098C137.378 21.0524 137.648 21.1124 137.898 21.2225C138.158 21.3325 138.388 21.4926 138.588 21.6827C138.787 21.8729 138.957 22.093 139.087 22.3431C139.217 22.5933 139.277 22.8534 139.277 23.1336V28.5968C139.277 28.867 139.217 29.1271 139.087 29.3773C138.957 29.6274 138.797 29.8475 138.588 30.0377C138.378 30.2278 138.148 30.3779 137.898 30.4879C137.648 30.598 137.378 30.658 137.098 30.658H131.809C131.529 30.658 131.259 30.598 131.009 30.4879C130.749 30.3779 130.519 30.2278 130.309 30.0377C130.099 29.8475 129.929 29.6274 129.799 29.3773C129.669 29.1271 129.609 28.857 129.609 28.5968V26.3355C129.609 26.0553 129.669 25.7952 129.799 25.545C129.929 25.2949 130.099 25.0747 130.309 24.8746C130.519 24.6745 130.749 24.5244 131.009 24.4244C131.259 24.3243 131.529 24.2643 131.809 24.2643H137.758V24.0141C137.758 23.0535 137.278 22.5833 136.318 22.5833ZM132.549 25.7952C131.609 25.7952 131.149 26.2654 131.149 27.196V27.7263C131.149 28.6668 131.619 29.1371 132.549 29.1371H136.328C137.288 29.1371 137.758 28.6668 137.758 27.7263V27.196C137.758 26.2654 137.278 25.7952 136.328 25.7952H132.549Z" fill="#F8F8FF"/>
<path d="M142.777 30.668V34H141.247V23.1236C141.247 22.8534 141.307 22.5933 141.437 22.3431C141.567 22.093 141.737 21.8628 141.947 21.6827C142.157 21.4926 142.387 21.3425 142.647 21.2325C142.897 21.1224 143.166 21.0624 143.446 21.0624H148.735C149.015 21.0624 149.285 21.1224 149.535 21.2325C149.795 21.3425 150.025 21.4926 150.225 21.6827C150.435 21.8729 150.595 22.093 150.725 22.3431C150.855 22.5933 150.915 22.8634 150.915 23.1236V28.5868C150.915 28.867 150.855 29.1271 150.725 29.3773C150.595 29.6274 150.435 29.8475 150.225 30.0377C150.015 30.2278 149.785 30.3879 149.535 30.4979C149.285 30.608 149.015 30.668 148.735 30.668H142.777ZM147.955 29.1371C148.915 29.1371 149.385 28.6568 149.385 27.7063V23.9941C149.385 23.0535 148.905 22.5833 147.955 22.5833H144.176C143.236 22.5833 142.777 23.0535 142.777 23.9941V27.7063C142.777 28.6568 143.246 29.1371 144.176 29.1371H147.955Z" fill="#F8F8FF"/>
<path d="M152.884 23.1436C152.884 22.8634 152.944 22.6033 153.074 22.3531C153.204 22.103 153.374 21.8829 153.584 21.6927C153.794 21.5026 154.024 21.3425 154.284 21.2325C154.534 21.1224 154.804 21.0624 155.084 21.0624H160.373C160.653 21.0624 160.923 21.1224 161.173 21.2325C161.433 21.3425 161.662 21.5026 161.862 21.6927C162.062 21.8829 162.232 22.103 162.362 22.3531C162.492 22.6033 162.552 22.8634 162.552 23.1436V28.6068C162.552 28.877 162.492 29.1371 162.362 29.3873C162.232 29.6374 162.072 29.8575 161.862 30.0477C161.652 30.2378 161.423 30.3879 161.173 30.4979C160.923 30.608 160.653 30.668 160.373 30.668H155.084C154.804 30.668 154.534 30.608 154.284 30.4979C154.024 30.3879 153.794 30.2378 153.584 30.0477C153.374 29.8575 153.204 29.6374 153.074 29.3873C152.944 29.1371 152.884 28.867 152.884 28.6068V23.1436ZM154.414 27.7263C154.414 28.6668 154.884 29.1371 155.814 29.1371H159.593C160.553 29.1371 161.023 28.6668 161.023 27.7263V24.0141C161.023 23.0636 160.543 22.5833 159.593 22.5833H155.814C154.874 22.5833 154.414 23.0636 154.414 24.0141V27.7263Z" fill="#F8F8FF"/>
<path d="M172 17.86C172.28 17.86 172.55 17.91 172.8 18.0201C173.06 18.1301 173.29 18.2802 173.5 18.4804C173.71 18.6805 173.88 18.9006 174 19.1407C174.13 19.3909 174.19 19.651 174.19 19.9312V28.6063C174.19 28.8765 174.13 29.1366 174 29.3868C173.87 29.6369 173.7 29.857 173.5 30.0472C173.29 30.2373 173.06 30.3874 172.8 30.4974C172.55 30.6075 172.28 30.6675 172 30.6675H166.711C166.431 30.6675 166.161 30.6075 165.912 30.4974C165.662 30.3874 165.422 30.2373 165.222 30.0472C165.012 29.857 164.852 29.6369 164.722 29.3868C164.592 29.1366 164.532 28.8665 164.532 28.6063V23.1431C164.532 22.8629 164.592 22.6028 164.722 22.3526C164.852 22.1025 165.012 21.8824 165.222 21.6922C165.432 21.5021 165.662 21.342 165.912 21.232C166.161 21.1219 166.431 21.0619 166.711 21.0619H172.67V20.8017C172.67 19.8712 172.2 19.4009 171.27 19.4009H164.972V17.87H172V17.86ZM172.66 24.0136C172.66 23.063 172.19 22.5828 171.26 22.5828H167.481C166.521 22.5828 166.051 23.063 166.051 24.0136V27.7258C166.051 28.6663 166.531 29.1366 167.481 29.1366H171.26C172.2 29.1366 172.66 28.6663 172.66 27.7258V24.0136Z" fill="#F8F8FF"/>
<path d="M184.297 26.5156H177.689V30.668H176.159V21.0524H177.689V24.9847H184.297V21.0524H185.827V30.668H184.297V26.5156Z" fill="#F8F8FF"/>
<path d="M189.326 23.7239H193.825C194.105 23.7239 194.375 23.774 194.635 23.884C194.895 23.9941 195.125 24.1442 195.325 24.3443C195.525 24.5444 195.685 24.7646 195.815 25.0047C195.945 25.2548 196.005 25.515 196.005 25.7952V28.5968C196.005 28.867 195.945 29.1271 195.815 29.3773C195.685 29.6274 195.525 29.8475 195.325 30.0377C195.125 30.2278 194.895 30.3779 194.635 30.4879C194.375 30.598 194.105 30.658 193.825 30.658H189.986C189.706 30.658 189.436 30.598 189.186 30.4879C188.937 30.3779 188.697 30.2278 188.487 30.0377C188.277 29.8475 188.107 29.6274 187.977 29.3773C187.847 29.1271 187.787 28.857 187.787 28.5968V21.0524H189.316V23.7239H189.326ZM189.326 25.2548V27.7263C189.326 28.6668 189.796 29.1371 190.726 29.1371H193.076C194.015 29.1371 194.475 28.6668 194.475 27.7263V26.6557C194.475 25.7251 194.005 25.2548 193.076 25.2548H189.326ZM197.355 21.0524H198.884V30.668H197.355V21.0524Z" fill="#F8F8FF"/>
<path d="M208.992 29.1371V21.0524H210.522V30.668H203.043C202.763 30.668 202.494 30.608 202.244 30.4979C201.994 30.3879 201.754 30.2378 201.544 30.0477C201.334 29.8576 201.164 29.6374 201.034 29.3873C200.904 29.1371 200.844 28.867 200.844 28.6068V21.0624H202.374V27.7363C202.374 28.6769 202.843 29.1472 203.773 29.1472H208.992V29.1371ZM205.143 19.6316L206.083 17.01H207.872L206.123 19.6316H205.143Z" fill="#F8F8FF"/>
<path d="M227.048 22.5833H220.779V21.0524H227.828C228.108 21.0524 228.378 21.1124 228.628 21.2225C228.888 21.3325 229.118 21.4926 229.318 21.6827C229.518 21.8729 229.688 22.093 229.818 22.3431C229.947 22.5933 230.007 22.8534 230.007 23.1336V28.5968C230.007 28.867 229.947 29.1271 229.818 29.3773C229.688 29.6274 229.528 29.8475 229.318 30.0377C229.108 30.2278 228.878 30.3779 228.628 30.4879C228.378 30.598 228.108 30.658 227.828 30.658H222.539C222.259 30.658 221.989 30.598 221.739 30.4879C221.489 30.3779 221.249 30.2278 221.039 30.0377C220.829 29.8475 220.66 29.6274 220.53 29.3773C220.4 29.1271 220.34 28.857 220.34 28.5968V26.3355C220.34 26.0553 220.4 25.7952 220.53 25.545C220.66 25.2949 220.829 25.0747 221.039 24.8746C221.249 24.6745 221.479 24.5244 221.739 24.4244C221.999 24.3243 222.259 24.2643 222.539 24.2643H228.488V24.0141C228.478 23.0535 227.998 22.5833 227.048 22.5833ZM223.269 25.7952C222.329 25.7952 221.869 26.2654 221.869 27.196V27.7263C221.869 28.6668 222.339 29.1371 223.269 29.1371H227.048C228.008 29.1371 228.478 28.6668 228.478 27.7263V27.196C228.478 26.2654 227.998 25.7952 227.048 25.7952H223.269Z" fill="#F8F8FF"/>
<path d="M240.115 26.5156H235.076V24.9847H240.115V24.0141C240.115 23.0636 239.635 22.5833 238.686 22.5833H235.256C234.317 22.5833 233.857 23.0636 233.857 24.0141H232.327V23.1436C232.327 22.8634 232.387 22.6033 232.507 22.3531C232.627 22.103 232.797 21.8829 233.007 21.6927C233.217 21.5026 233.447 21.3425 233.707 21.2325C233.967 21.1224 234.227 21.0624 234.497 21.0624H239.465C239.745 21.0624 240.015 21.1224 240.265 21.2325C240.525 21.3425 240.755 21.5026 240.955 21.6927C241.155 21.8829 241.325 22.103 241.455 22.3531C241.585 22.6033 241.645 22.8634 241.645 23.1436V28.6068C241.645 28.877 241.585 29.1371 241.455 29.3873C241.325 29.6374 241.165 29.8575 240.955 30.0477C240.745 30.2378 240.515 30.3879 240.265 30.4979C240.015 30.608 239.745 30.668 239.465 30.668H234.177C233.897 30.668 233.627 30.608 233.377 30.4979C233.127 30.3879 232.887 30.2378 232.677 30.0477C232.467 29.8575 232.297 29.6374 232.167 29.3873C232.037 29.1371 231.977 28.867 231.977 28.6068V27.7363H233.507C233.507 28.6769 233.977 29.1471 234.906 29.1471H238.686C239.645 29.1471 240.115 28.6769 240.115 27.7363V26.5156Z" fill="#F8F8FF"/>
<path d="M245.134 30.668V34H243.605V23.1236C243.605 22.8534 243.665 22.5933 243.795 22.3431C243.924 22.093 244.094 21.8628 244.304 21.6827C244.514 21.4926 244.744 21.3425 245.004 21.2325C245.264 21.1224 245.524 21.0624 245.804 21.0624H251.093C251.373 21.0624 251.643 21.1224 251.893 21.2325C252.153 21.3425 252.383 21.4926 252.583 21.6827C252.793 21.8729 252.953 22.093 253.082 22.3431C253.212 22.5933 253.272 22.8634 253.272 23.1236V28.5868C253.272 28.867 253.212 29.1271 253.082 29.3773C252.953 29.6274 252.793 29.8475 252.583 30.0377C252.373 30.2278 252.143 30.3879 251.893 30.4979C251.643 30.608 251.373 30.668 251.093 30.668H245.134ZM250.323 29.1371C251.283 29.1371 251.753 28.6568 251.753 27.7063V23.9941C251.753 23.0535 251.273 22.5833 250.323 22.5833H246.544C245.604 22.5833 245.144 23.0535 245.144 23.9941V27.7063C245.144 28.6568 245.614 29.1371 246.544 29.1371H250.323Z" fill="#F8F8FF"/>
<path d="M255.242 23.1436C255.242 22.8634 255.302 22.6033 255.432 22.3531C255.562 22.103 255.732 21.8829 255.942 21.6927C256.152 21.5026 256.382 21.3425 256.642 21.2325C256.902 21.1224 257.162 21.0624 257.442 21.0624H262.73C263.01 21.0624 263.28 21.1224 263.53 21.2325C263.79 21.3425 264.02 21.5026 264.22 21.6927C264.42 21.8829 264.59 22.103 264.72 22.3531C264.85 22.6033 264.91 22.8634 264.91 23.1436V28.6068C264.91 28.877 264.85 29.1371 264.72 29.3873C264.59 29.6374 264.43 29.8575 264.22 30.0477C264.01 30.2378 263.78 30.3879 263.53 30.4979C263.28 30.608 263.01 30.668 262.73 30.668H257.442C257.162 30.668 256.892 30.608 256.642 30.4979C256.392 30.3879 256.152 30.2378 255.942 30.0477C255.732 29.8575 255.562 29.6374 255.432 29.3873C255.302 29.1371 255.242 28.867 255.242 28.6068V23.1436ZM256.772 27.7263C256.772 28.6668 257.242 29.1371 258.171 29.1371H261.951C262.91 29.1371 263.38 28.6668 263.38 27.7263V24.0141C263.38 23.0636 262.9 22.5833 261.951 22.5833H258.171C257.232 22.5833 256.772 23.0636 256.772 24.0141V27.7263Z" fill="#F8F8FF"/>
<path d="M268.409 22.5833V30.668H266.879V21.0524H274.358C274.638 21.0524 274.908 21.1124 275.158 21.2225C275.418 21.3325 275.648 21.4826 275.857 21.6727C276.067 21.8628 276.237 22.083 276.357 22.3331C276.487 22.5833 276.547 22.8534 276.547 23.1136V30.658H275.018V23.9841C275.018 23.0435 274.548 22.5733 273.618 22.5733H268.409V22.5833Z" fill="#F8F8FF"/>
<path d="M278.517 23.1436C278.517 22.8634 278.577 22.6033 278.707 22.3531C278.837 22.103 279.007 21.8829 279.217 21.6927C279.427 21.5026 279.657 21.3425 279.917 21.2325C280.176 21.1224 280.436 21.0624 280.716 21.0624H286.005C286.285 21.0624 286.555 21.1224 286.805 21.2325C287.065 21.3425 287.295 21.5026 287.495 21.6927C287.695 21.8829 287.865 22.103 287.995 22.3531C288.125 22.6033 288.185 22.8634 288.185 23.1436V28.6068C288.185 28.877 288.125 29.1371 287.995 29.3873C287.865 29.6374 287.705 29.8575 287.495 30.0477C287.285 30.2378 287.055 30.3879 286.805 30.4979C286.555 30.608 286.285 30.668 286.005 30.668H280.716C280.436 30.668 280.166 30.608 279.917 30.4979C279.667 30.3879 279.427 30.2378 279.217 30.0477C279.007 29.8575 278.837 29.6374 278.707 29.3873C278.577 29.1371 278.517 28.867 278.517 28.6068V23.1436ZM280.047 27.7263C280.047 28.6668 280.516 29.1371 281.446 29.1371H285.225C286.185 29.1371 286.655 28.6668 286.655 27.7263V24.0141C286.655 23.0636 286.175 22.5833 285.225 22.5833H281.446C280.506 22.5833 280.047 23.0636 280.047 24.0141V27.7263Z" fill="#F8F8FF"/>
<path d="M291.684 30.668V34H290.154V23.1236C290.154 22.8534 290.214 22.5933 290.344 22.3431C290.474 22.093 290.644 21.8628 290.854 21.6827C291.064 21.4926 291.294 21.3425 291.554 21.2325C291.814 21.1224 292.074 21.0624 292.354 21.0624H297.643C297.923 21.0624 298.193 21.1224 298.442 21.2325C298.702 21.3425 298.932 21.4926 299.132 21.6827C299.342 21.8729 299.502 22.093 299.632 22.3431C299.762 22.5933 299.822 22.8634 299.822 23.1236V28.5868C299.822 28.867 299.762 29.1271 299.632 29.3773C299.502 29.6274 299.342 29.8475 299.132 30.0377C298.922 30.2278 298.692 30.3879 298.442 30.4979C298.193 30.608 297.923 30.668 297.643 30.668H291.684ZM296.863 29.1371C297.823 29.1371 298.293 28.6568 298.293 27.7063V23.9941C298.293 23.0535 297.813 22.5833 296.863 22.5833H293.084C292.144 22.5833 291.684 23.0535 291.684 23.9941V27.7063C291.684 28.6568 292.154 29.1371 293.084 29.1371H296.863Z" fill="#F8F8FF"/>
<path d="M305.131 22.5833H301.782V21.0524H310V22.5833H306.651V30.668H305.121V22.5833H305.131Z" fill="#F8F8FF"/>
<path d="M60.2047 29.4368C60.0447 29.8771 59.8047 30.1972 59.5048 30.3874C59.2049 30.5775 58.855 30.6675 58.455 30.6675C58.0451 30.6675 57.6952 30.5775 57.3953 30.3874C57.0953 30.1972 56.8654 29.8871 56.7054 29.4368L52.5363 19.4709V30.6575H50.7167V19.7111C50.7167 19.2008 50.8967 18.7605 51.2566 18.4003C51.6165 18.0401 52.0564 17.86 52.5663 17.86C53.0462 17.86 53.4261 17.96 53.6861 18.1602C53.956 18.3603 54.146 18.6304 54.266 18.9606L58.445 28.9165L62.6241 18.9606C62.7441 18.6304 62.9341 18.3603 63.194 18.1602C63.4539 17.96 63.8339 17.86 64.3338 17.86C64.8436 17.86 65.2835 18.0401 65.6435 18.4003C66.0034 18.7605 66.1834 19.2008 66.1834 19.7111V30.6675H64.3638V19.4709L60.2047 29.4368Z" fill="#F8F8FF"/>
<path d="M77.8308 24.4244C77.8308 24.7045 77.7708 24.9647 77.6409 25.2148C77.5109 25.465 77.3509 25.6851 77.151 25.8752C76.951 26.0653 76.7211 26.2254 76.4611 26.3355C76.2012 26.4455 75.9312 26.5056 75.6513 26.5056H69.6926V27.7163C69.6926 28.6568 70.1625 29.1271 71.0923 29.1271H77.8308V30.658H70.3524C70.0725 30.658 69.8026 30.598 69.5526 30.4879C69.2927 30.3779 69.0627 30.2278 68.8528 30.0377C68.6428 29.8475 68.4729 29.6274 68.3429 29.3773C68.2129 29.1271 68.1529 28.857 68.1529 28.5968V23.1336C68.1529 22.8534 68.2129 22.5933 68.3429 22.3431C68.4729 22.093 68.6428 21.8729 68.8528 21.6827C69.0627 21.4926 69.2927 21.3325 69.5526 21.2225C69.8026 21.1124 70.0725 21.0524 70.3524 21.0524H75.6413C75.9212 21.0524 76.1912 21.1124 76.4511 21.2225C76.7111 21.3325 76.941 21.4926 77.141 21.6827C77.3409 21.8729 77.5009 22.093 77.6309 22.3431C77.7608 22.5933 77.8208 22.8534 77.8208 23.1336V24.4244H77.8308ZM75.0914 24.9847C75.2514 24.9847 75.4113 24.9547 75.5613 24.8946C75.7113 24.8346 75.8412 24.7445 75.9512 24.6345C76.0612 24.5244 76.1512 24.3943 76.2112 24.2543C76.2712 24.1142 76.3011 23.9541 76.3011 23.784C76.3011 23.6239 76.2712 23.4638 76.2112 23.3137C76.1512 23.1636 76.0612 23.0435 75.9512 22.9335C75.8412 22.8234 75.7113 22.7434 75.5613 22.6833C75.4113 22.6233 75.2614 22.5933 75.0914 22.5933H71.0923C70.1525 22.5933 69.6926 23.0736 69.6926 24.0241V24.9947H75.0914V24.9847Z" fill="#F8F8FF"/>
<path d="M87.0288 25.0947L90.9179 21.0524H93.0475L88.4585 25.8252L93.3374 30.668H91.1979L87.0388 26.5956V30.668H85.5091V26.5956L81.35 30.668H79.2105L84.0894 25.8252L79.5004 21.0524H81.63L85.5191 25.0947V21.0524H87.0488V25.0947H87.0288Z" fill="#F8F8FF"/>
<path d="M102.175 17.86C102.455 17.86 102.725 17.91 102.975 18.0201C103.225 18.1301 103.465 18.2802 103.675 18.4804C103.885 18.6805 104.055 18.9006 104.185 19.1407C104.315 19.3909 104.375 19.651 104.375 19.9312V28.6063C104.375 28.8765 104.315 29.1366 104.185 29.3868C104.055 29.6369 103.885 29.857 103.675 30.0472C103.465 30.2373 103.235 30.3874 102.975 30.4974C102.715 30.6075 102.455 30.6675 102.175 30.6675H96.8866C96.6067 30.6675 96.3367 30.6075 96.0868 30.4974C95.8368 30.3874 95.5969 30.2373 95.3969 30.0472C95.187 29.857 95.027 29.6369 94.897 29.3868C94.7671 29.1366 94.7071 28.8665 94.7071 28.6063V23.1431C94.7071 22.8629 94.7671 22.6028 94.897 22.3526C95.027 22.1025 95.187 21.8824 95.3969 21.6922C95.6069 21.5021 95.8368 21.342 96.0868 21.232C96.3467 21.1219 96.6067 21.0619 96.8866 21.0619H102.845V20.8017C102.845 19.8712 102.375 19.4009 101.446 19.4009H95.147V17.87H102.175V17.86ZM102.845 24.0136C102.845 23.063 102.375 22.5828 101.446 22.5828H97.6664C96.7067 22.5828 96.2368 23.063 96.2368 24.0136V27.7258C96.2368 28.6663 96.7167 29.1366 97.6664 29.1366H101.446C102.385 29.1366 102.845 28.6663 102.845 27.7258V24.0136Z" fill="#F8F8FF"/>
<path d="M114.483 21.0524H116.012V31.9288C116.012 32.1989 115.952 32.4591 115.822 32.7092C115.692 32.9594 115.533 33.1795 115.323 33.3696C115.113 33.5597 114.883 33.7098 114.633 33.8199C114.383 33.9299 114.113 33.99 113.833 33.99H106.784V32.4591H113.053C114.013 32.4591 114.483 31.9888 114.483 31.0482V30.658H108.534C108.254 30.658 107.984 30.598 107.734 30.4879C107.474 30.3779 107.244 30.2278 107.034 30.0377C106.824 29.8475 106.654 29.6274 106.524 29.3773C106.395 29.1271 106.335 28.857 106.335 28.5968V21.0524H107.864V27.7263C107.864 28.6668 108.334 29.1371 109.264 29.1371H113.043C114.003 29.1371 114.473 28.6668 114.473 27.7263V21.0524H114.483Z" fill="#F8F8FF"/>
<path d="M126.12 26.5156H119.512V30.668H117.982V21.0524H119.512V24.9847H126.12V21.0524H127.65V30.668H126.12V26.5156Z" fill="#F8F8FF"/>
<path d="M136.318 22.5833H130.049V21.0524H137.098C137.378 21.0524 137.648 21.1124 137.898 21.2225C138.158 21.3325 138.388 21.4926 138.588 21.6827C138.787 21.8729 138.957 22.093 139.087 22.3431C139.217 22.5933 139.277 22.8534 139.277 23.1336V28.5968C139.277 28.867 139.217 29.1271 139.087 29.3773C138.957 29.6274 138.797 29.8475 138.588 30.0377C138.378 30.2278 138.148 30.3779 137.898 30.4879C137.648 30.598 137.378 30.658 137.098 30.658H131.809C131.529 30.658 131.259 30.598 131.009 30.4879C130.749 30.3779 130.519 30.2278 130.309 30.0377C130.099 29.8475 129.929 29.6274 129.799 29.3773C129.669 29.1271 129.609 28.857 129.609 28.5968V26.3355C129.609 26.0553 129.669 25.7952 129.799 25.545C129.929 25.2949 130.099 25.0747 130.309 24.8746C130.519 24.6745 130.749 24.5244 131.009 24.4244C131.259 24.3243 131.529 24.2643 131.809 24.2643H137.758V24.0141C137.758 23.0535 137.278 22.5833 136.318 22.5833ZM132.549 25.7952C131.609 25.7952 131.149 26.2654 131.149 27.196V27.7263C131.149 28.6668 131.619 29.1371 132.549 29.1371H136.328C137.288 29.1371 137.758 28.6668 137.758 27.7263V27.196C137.758 26.2654 137.278 25.7952 136.328 25.7952H132.549Z" fill="#F8F8FF"/>
<path d="M142.777 30.668V34H141.247V23.1236C141.247 22.8534 141.307 22.5933 141.437 22.3431C141.567 22.093 141.737 21.8628 141.947 21.6827C142.157 21.4926 142.387 21.3425 142.647 21.2325C142.897 21.1224 143.166 21.0624 143.446 21.0624H148.735C149.015 21.0624 149.285 21.1224 149.535 21.2325C149.795 21.3425 150.025 21.4926 150.225 21.6827C150.435 21.8729 150.595 22.093 150.725 22.3431C150.855 22.5933 150.915 22.8634 150.915 23.1236V28.5868C150.915 28.867 150.855 29.1271 150.725 29.3773C150.595 29.6274 150.435 29.8475 150.225 30.0377C150.015 30.2278 149.785 30.3879 149.535 30.4979C149.285 30.608 149.015 30.668 148.735 30.668H142.777ZM147.955 29.1371C148.915 29.1371 149.385 28.6568 149.385 27.7063V23.9941C149.385 23.0535 148.905 22.5833 147.955 22.5833H144.176C143.236 22.5833 142.777 23.0535 142.777 23.9941V27.7063C142.777 28.6568 143.246 29.1371 144.176 29.1371H147.955Z" fill="#F8F8FF"/>
<path d="M152.884 23.1436C152.884 22.8634 152.944 22.6033 153.074 22.3531C153.204 22.103 153.374 21.8829 153.584 21.6927C153.794 21.5026 154.024 21.3425 154.284 21.2325C154.534 21.1224 154.804 21.0624 155.084 21.0624H160.373C160.653 21.0624 160.923 21.1224 161.173 21.2325C161.433 21.3425 161.662 21.5026 161.862 21.6927C162.062 21.8829 162.232 22.103 162.362 22.3531C162.492 22.6033 162.552 22.8634 162.552 23.1436V28.6068C162.552 28.877 162.492 29.1371 162.362 29.3873C162.232 29.6374 162.072 29.8575 161.862 30.0477C161.652 30.2378 161.423 30.3879 161.173 30.4979C160.923 30.608 160.653 30.668 160.373 30.668H155.084C154.804 30.668 154.534 30.608 154.284 30.4979C154.024 30.3879 153.794 30.2378 153.584 30.0477C153.374 29.8575 153.204 29.6374 153.074 29.3873C152.944 29.1371 152.884 28.867 152.884 28.6068V23.1436ZM154.414 27.7263C154.414 28.6668 154.884 29.1371 155.814 29.1371H159.593C160.553 29.1371 161.023 28.6668 161.023 27.7263V24.0141C161.023 23.0636 160.543 22.5833 159.593 22.5833H155.814C154.874 22.5833 154.414 23.0636 154.414 24.0141V27.7263Z" fill="#F8F8FF"/>
<path d="M172 17.86C172.28 17.86 172.55 17.91 172.8 18.0201C173.06 18.1301 173.29 18.2802 173.5 18.4804C173.71 18.6805 173.88 18.9006 174 19.1407C174.13 19.3909 174.19 19.651 174.19 19.9312V28.6063C174.19 28.8765 174.13 29.1366 174 29.3868C173.87 29.6369 173.7 29.857 173.5 30.0472C173.29 30.2373 173.06 30.3874 172.8 30.4974C172.55 30.6075 172.28 30.6675 172 30.6675H166.711C166.431 30.6675 166.161 30.6075 165.912 30.4974C165.662 30.3874 165.422 30.2373 165.222 30.0472C165.012 29.857 164.852 29.6369 164.722 29.3868C164.592 29.1366 164.532 28.8665 164.532 28.6063V23.1431C164.532 22.8629 164.592 22.6028 164.722 22.3526C164.852 22.1025 165.012 21.8824 165.222 21.6922C165.432 21.5021 165.662 21.342 165.912 21.232C166.161 21.1219 166.431 21.0619 166.711 21.0619H172.67V20.8017C172.67 19.8712 172.2 19.4009 171.27 19.4009H164.972V17.87H172V17.86ZM172.66 24.0136C172.66 23.063 172.19 22.5828 171.26 22.5828H167.481C166.521 22.5828 166.051 23.063 166.051 24.0136V27.7258C166.051 28.6663 166.531 29.1366 167.481 29.1366H171.26C172.2 29.1366 172.66 28.6663 172.66 27.7258V24.0136Z" fill="#F8F8FF"/>
<path d="M184.297 26.5156H177.689V30.668H176.159V21.0524H177.689V24.9847H184.297V21.0524H185.827V30.668H184.297V26.5156Z" fill="#F8F8FF"/>
<path d="M189.326 23.7239H193.825C194.105 23.7239 194.375 23.774 194.635 23.884C194.895 23.9941 195.125 24.1442 195.325 24.3443C195.525 24.5444 195.685 24.7646 195.815 25.0047C195.945 25.2548 196.005 25.515 196.005 25.7952V28.5968C196.005 28.867 195.945 29.1271 195.815 29.3773C195.685 29.6274 195.525 29.8475 195.325 30.0377C195.125 30.2278 194.895 30.3779 194.635 30.4879C194.375 30.598 194.105 30.658 193.825 30.658H189.986C189.706 30.658 189.436 30.598 189.186 30.4879C188.937 30.3779 188.697 30.2278 188.487 30.0377C188.277 29.8475 188.107 29.6274 187.977 29.3773C187.847 29.1271 187.787 28.857 187.787 28.5968V21.0524H189.316V23.7239H189.326ZM189.326 25.2548V27.7263C189.326 28.6668 189.796 29.1371 190.726 29.1371H193.076C194.015 29.1371 194.475 28.6668 194.475 27.7263V26.6557C194.475 25.7251 194.005 25.2548 193.076 25.2548H189.326ZM197.355 21.0524H198.884V30.668H197.355V21.0524Z" fill="#F8F8FF"/>
<path d="M208.992 29.1371V21.0524H210.522V30.668H203.043C202.763 30.668 202.494 30.608 202.244 30.4979C201.994 30.3879 201.754 30.2378 201.544 30.0477C201.334 29.8576 201.164 29.6374 201.034 29.3873C200.904 29.1371 200.844 28.867 200.844 28.6068V21.0624H202.374V27.7363C202.374 28.6769 202.843 29.1472 203.773 29.1472H208.992V29.1371ZM205.143 19.6316L206.083 17.01H207.872L206.123 19.6316H205.143Z" fill="#F8F8FF"/>
<path d="M227.048 22.5833H220.779V21.0524H227.828C228.108 21.0524 228.378 21.1124 228.628 21.2225C228.888 21.3325 229.118 21.4926 229.318 21.6827C229.518 21.8729 229.688 22.093 229.818 22.3431C229.947 22.5933 230.007 22.8534 230.007 23.1336V28.5968C230.007 28.867 229.947 29.1271 229.818 29.3773C229.688 29.6274 229.528 29.8475 229.318 30.0377C229.108 30.2278 228.878 30.3779 228.628 30.4879C228.378 30.598 228.108 30.658 227.828 30.658H222.539C222.259 30.658 221.989 30.598 221.739 30.4879C221.489 30.3779 221.249 30.2278 221.039 30.0377C220.829 29.8475 220.66 29.6274 220.53 29.3773C220.4 29.1271 220.34 28.857 220.34 28.5968V26.3355C220.34 26.0553 220.4 25.7952 220.53 25.545C220.66 25.2949 220.829 25.0747 221.039 24.8746C221.249 24.6745 221.479 24.5244 221.739 24.4244C221.999 24.3243 222.259 24.2643 222.539 24.2643H228.488V24.0141C228.478 23.0535 227.998 22.5833 227.048 22.5833ZM223.269 25.7952C222.329 25.7952 221.869 26.2654 221.869 27.196V27.7263C221.869 28.6668 222.339 29.1371 223.269 29.1371H227.048C228.008 29.1371 228.478 28.6668 228.478 27.7263V27.196C228.478 26.2654 227.998 25.7952 227.048 25.7952H223.269Z" fill="#F8F8FF"/>
<path d="M240.115 26.5156H235.076V24.9847H240.115V24.0141C240.115 23.0636 239.635 22.5833 238.686 22.5833H235.256C234.317 22.5833 233.857 23.0636 233.857 24.0141H232.327V23.1436C232.327 22.8634 232.387 22.6033 232.507 22.3531C232.627 22.103 232.797 21.8829 233.007 21.6927C233.217 21.5026 233.447 21.3425 233.707 21.2325C233.967 21.1224 234.227 21.0624 234.497 21.0624H239.465C239.745 21.0624 240.015 21.1224 240.265 21.2325C240.525 21.3425 240.755 21.5026 240.955 21.6927C241.155 21.8829 241.325 22.103 241.455 22.3531C241.585 22.6033 241.645 22.8634 241.645 23.1436V28.6068C241.645 28.877 241.585 29.1371 241.455 29.3873C241.325 29.6374 241.165 29.8575 240.955 30.0477C240.745 30.2378 240.515 30.3879 240.265 30.4979C240.015 30.608 239.745 30.668 239.465 30.668H234.177C233.897 30.668 233.627 30.608 233.377 30.4979C233.127 30.3879 232.887 30.2378 232.677 30.0477C232.467 29.8575 232.297 29.6374 232.167 29.3873C232.037 29.1371 231.977 28.867 231.977 28.6068V27.7363H233.507C233.507 28.6769 233.977 29.1471 234.906 29.1471H238.686C239.645 29.1471 240.115 28.6769 240.115 27.7363V26.5156Z" fill="#F8F8FF"/>
<path d="M245.134 30.668V34H243.605V23.1236C243.605 22.8534 243.665 22.5933 243.795 22.3431C243.924 22.093 244.094 21.8628 244.304 21.6827C244.514 21.4926 244.744 21.3425 245.004 21.2325C245.264 21.1224 245.524 21.0624 245.804 21.0624H251.093C251.373 21.0624 251.643 21.1224 251.893 21.2325C252.153 21.3425 252.383 21.4926 252.583 21.6827C252.793 21.8729 252.953 22.093 253.082 22.3431C253.212 22.5933 253.272 22.8634 253.272 23.1236V28.5868C253.272 28.867 253.212 29.1271 253.082 29.3773C252.953 29.6274 252.793 29.8475 252.583 30.0377C252.373 30.2278 252.143 30.3879 251.893 30.4979C251.643 30.608 251.373 30.668 251.093 30.668H245.134ZM250.323 29.1371C251.283 29.1371 251.753 28.6568 251.753 27.7063V23.9941C251.753 23.0535 251.273 22.5833 250.323 22.5833H246.544C245.604 22.5833 245.144 23.0535 245.144 23.9941V27.7063C245.144 28.6568 245.614 29.1371 246.544 29.1371H250.323Z" fill="#F8F8FF"/>
<path d="M255.242 23.1436C255.242 22.8634 255.302 22.6033 255.432 22.3531C255.562 22.103 255.732 21.8829 255.942 21.6927C256.152 21.5026 256.382 21.3425 256.642 21.2325C256.902 21.1224 257.162 21.0624 257.442 21.0624H262.73C263.01 21.0624 263.28 21.1224 263.53 21.2325C263.79 21.3425 264.02 21.5026 264.22 21.6927C264.42 21.8829 264.59 22.103 264.72 22.3531C264.85 22.6033 264.91 22.8634 264.91 23.1436V28.6068C264.91 28.877 264.85 29.1371 264.72 29.3873C264.59 29.6374 264.43 29.8575 264.22 30.0477C264.01 30.2378 263.78 30.3879 263.53 30.4979C263.28 30.608 263.01 30.668 262.73 30.668H257.442C257.162 30.668 256.892 30.608 256.642 30.4979C256.392 30.3879 256.152 30.2378 255.942 30.0477C255.732 29.8575 255.562 29.6374 255.432 29.3873C255.302 29.1371 255.242 28.867 255.242 28.6068V23.1436ZM256.772 27.7263C256.772 28.6668 257.242 29.1371 258.171 29.1371H261.951C262.91 29.1371 263.38 28.6668 263.38 27.7263V24.0141C263.38 23.0636 262.9 22.5833 261.951 22.5833H258.171C257.232 22.5833 256.772 23.0636 256.772 24.0141V27.7263Z" fill="#F8F8FF"/>
<path d="M268.409 22.5833V30.668H266.879V21.0524H274.358C274.638 21.0524 274.908 21.1124 275.158 21.2225C275.418 21.3325 275.648 21.4826 275.857 21.6727C276.067 21.8628 276.237 22.083 276.357 22.3331C276.487 22.5833 276.547 22.8534 276.547 23.1136V30.658H275.018V23.9841C275.018 23.0435 274.548 22.5733 273.618 22.5733H268.409V22.5833Z" fill="#F8F8FF"/>
<path d="M278.517 23.1436C278.517 22.8634 278.577 22.6033 278.707 22.3531C278.837 22.103 279.007 21.8829 279.217 21.6927C279.427 21.5026 279.657 21.3425 279.917 21.2325C280.176 21.1224 280.436 21.0624 280.716 21.0624H286.005C286.285 21.0624 286.555 21.1224 286.805 21.2325C287.065 21.3425 287.295 21.5026 287.495 21.6927C287.695 21.8829 287.865 22.103 287.995 22.3531C288.125 22.6033 288.185 22.8634 288.185 23.1436V28.6068C288.185 28.877 288.125 29.1371 287.995 29.3873C287.865 29.6374 287.705 29.8575 287.495 30.0477C287.285 30.2378 287.055 30.3879 286.805 30.4979C286.555 30.608 286.285 30.668 286.005 30.668H280.716C280.436 30.668 280.166 30.608 279.917 30.4979C279.667 30.3879 279.427 30.2378 279.217 30.0477C279.007 29.8575 278.837 29.6374 278.707 29.3873C278.577 29.1371 278.517 28.867 278.517 28.6068V23.1436ZM280.047 27.7263C280.047 28.6668 280.516 29.1371 281.446 29.1371H285.225C286.185 29.1371 286.655 28.6668 286.655 27.7263V24.0141C286.655 23.0636 286.175 22.5833 285.225 22.5833H281.446C280.506 22.5833 280.047 23.0636 280.047 24.0141V27.7263Z" fill="#F8F8FF"/>
<path d="M291.684 30.668V34H290.154V23.1236C290.154 22.8534 290.214 22.5933 290.344 22.3431C290.474 22.093 290.644 21.8628 290.854 21.6827C291.064 21.4926 291.294 21.3425 291.554 21.2325C291.814 21.1224 292.074 21.0624 292.354 21.0624H297.643C297.923 21.0624 298.193 21.1224 298.442 21.2325C298.702 21.3425 298.932 21.4926 299.132 21.6827C299.342 21.8729 299.502 22.093 299.632 22.3431C299.762 22.5933 299.822 22.8634 299.822 23.1236V28.5868C299.822 28.867 299.762 29.1271 299.632 29.3773C299.502 29.6274 299.342 29.8475 299.132 30.0377C298.922 30.2278 298.692 30.3879 298.442 30.4979C298.193 30.608 297.923 30.668 297.643 30.668H291.684ZM296.863 29.1371C297.823 29.1371 298.293 28.6568 298.293 27.7063V23.9941C298.293 23.0535 297.813 22.5833 296.863 22.5833H293.084C292.144 22.5833 291.684 23.0535 291.684 23.9941V27.7063C291.684 28.6568 292.154 29.1371 293.084 29.1371H296.863Z" fill="#F8F8FF"/>
<path d="M305.131 22.5833H301.782V21.0524H310V22.5833H306.651V30.668H305.121V22.5833H305.131Z" fill="#F8F8FF"/>
<path d="M60.2047 29.4368C60.0447 29.8771 59.8047 30.1972 59.5048 30.3874C59.2049 30.5775 58.855 30.6675 58.455 30.6675C58.0451 30.6675 57.6952 30.5775 57.3953 30.3874C57.0953 30.1972 56.8654 29.8871 56.7054 29.4368L52.5363 19.4709V30.6575H50.7167V19.7111C50.7167 19.2008 50.8967 18.7605 51.2566 18.4003C51.6165 18.0401 52.0564 17.86 52.5663 17.86C53.0462 17.86 53.4261 17.96 53.6861 18.1602C53.956 18.3603 54.146 18.6304 54.266 18.9606L58.445 28.9165L62.6241 18.9606C62.7441 18.6304 62.9341 18.3603 63.194 18.1602C63.4539 17.96 63.8339 17.86 64.3338 17.86C64.8436 17.86 65.2835 18.0401 65.6435 18.4003C66.0034 18.7605 66.1834 19.2008 66.1834 19.7111V30.6675H64.3638V19.4709L60.2047 29.4368Z" fill="#F8F8FF"/>
<path d="M77.8308 24.4244C77.8308 24.7045 77.7708 24.9647 77.6409 25.2148C77.5109 25.465 77.3509 25.6851 77.151 25.8752C76.951 26.0653 76.7211 26.2254 76.4611 26.3355C76.2012 26.4455 75.9312 26.5056 75.6513 26.5056H69.6926V27.7163C69.6926 28.6568 70.1625 29.1271 71.0923 29.1271H77.8308V30.658H70.3524C70.0725 30.658 69.8026 30.598 69.5526 30.4879C69.2927 30.3779 69.0627 30.2278 68.8528 30.0377C68.6428 29.8475 68.4729 29.6274 68.3429 29.3773C68.2129 29.1271 68.1529 28.857 68.1529 28.5968V23.1336C68.1529 22.8534 68.2129 22.5933 68.3429 22.3431C68.4729 22.093 68.6428 21.8729 68.8528 21.6827C69.0627 21.4926 69.2927 21.3325 69.5526 21.2225C69.8026 21.1124 70.0725 21.0524 70.3524 21.0524H75.6413C75.9212 21.0524 76.1912 21.1124 76.4511 21.2225C76.7111 21.3325 76.941 21.4926 77.141 21.6827C77.3409 21.8729 77.5009 22.093 77.6309 22.3431C77.7608 22.5933 77.8208 22.8534 77.8208 23.1336V24.4244H77.8308ZM75.0914 24.9847C75.2514 24.9847 75.4113 24.9547 75.5613 24.8946C75.7113 24.8346 75.8412 24.7445 75.9512 24.6345C76.0612 24.5244 76.1512 24.3943 76.2112 24.2543C76.2712 24.1142 76.3011 23.9541 76.3011 23.784C76.3011 23.6239 76.2712 23.4638 76.2112 23.3137C76.1512 23.1636 76.0612 23.0435 75.9512 22.9335C75.8412 22.8234 75.7113 22.7434 75.5613 22.6833C75.4113 22.6233 75.2614 22.5933 75.0914 22.5933H71.0923C70.1525 22.5933 69.6926 23.0736 69.6926 24.0241V24.9947H75.0914V24.9847Z" fill="#F8F8FF"/>
<path d="M87.0288 25.0947L90.9179 21.0524H93.0475L88.4585 25.8252L93.3374 30.668H91.1979L87.0388 26.5956V30.668H85.5091V26.5956L81.35 30.668H79.2105L84.0894 25.8252L79.5004 21.0524H81.63L85.5191 25.0947V21.0524H87.0488V25.0947H87.0288Z" fill="#F8F8FF"/>
<path d="M102.175 17.86C102.455 17.86 102.725 17.91 102.975 18.0201C103.225 18.1301 103.465 18.2802 103.675 18.4804C103.885 18.6805 104.055 18.9006 104.185 19.1407C104.315 19.3909 104.375 19.651 104.375 19.9312V28.6063C104.375 28.8765 104.315 29.1366 104.185 29.3868C104.055 29.6369 103.885 29.857 103.675 30.0472C103.465 30.2373 103.235 30.3874 102.975 30.4974C102.715 30.6075 102.455 30.6675 102.175 30.6675H96.8866C96.6067 30.6675 96.3367 30.6075 96.0868 30.4974C95.8368 30.3874 95.5969 30.2373 95.3969 30.0472C95.187 29.857 95.027 29.6369 94.897 29.3868C94.7671 29.1366 94.7071 28.8665 94.7071 28.6063V23.1431C94.7071 22.8629 94.7671 22.6028 94.897 22.3526C95.027 22.1025 95.187 21.8824 95.3969 21.6922C95.6069 21.5021 95.8368 21.342 96.0868 21.232C96.3467 21.1219 96.6067 21.0619 96.8866 21.0619H102.845V20.8017C102.845 19.8712 102.375 19.4009 101.446 19.4009H95.147V17.87H102.175V17.86ZM102.845 24.0136C102.845 23.063 102.375 22.5828 101.446 22.5828H97.6664C96.7067 22.5828 96.2368 23.063 96.2368 24.0136V27.7258C96.2368 28.6663 96.7167 29.1366 97.6664 29.1366H101.446C102.385 29.1366 102.845 28.6663 102.845 27.7258V24.0136Z" fill="#F8F8FF"/>
<path d="M114.483 21.0524H116.012V31.9288C116.012 32.1989 115.952 32.4591 115.822 32.7092C115.692 32.9594 115.533 33.1795 115.323 33.3696C115.113 33.5597 114.883 33.7098 114.633 33.8199C114.383 33.9299 114.113 33.99 113.833 33.99H106.784V32.4591H113.053C114.013 32.4591 114.483 31.9888 114.483 31.0482V30.658H108.534C108.254 30.658 107.984 30.598 107.734 30.4879C107.474 30.3779 107.244 30.2278 107.034 30.0377C106.824 29.8475 106.654 29.6274 106.524 29.3773C106.395 29.1271 106.335 28.857 106.335 28.5968V21.0524H107.864V27.7263C107.864 28.6668 108.334 29.1371 109.264 29.1371H113.043C114.003 29.1371 114.473 28.6668 114.473 27.7263V21.0524H114.483Z" fill="#F8F8FF"/>
<path d="M126.12 26.5156H119.512V30.668H117.982V21.0524H119.512V24.9847H126.12V21.0524H127.65V30.668H126.12V26.5156Z" fill="#F8F8FF"/>
<path d="M136.318 22.5833H130.049V21.0524H137.098C137.378 21.0524 137.648 21.1124 137.898 21.2225C138.158 21.3325 138.388 21.4926 138.588 21.6827C138.787 21.8729 138.957 22.093 139.087 22.3431C139.217 22.5933 139.277 22.8534 139.277 23.1336V28.5968C139.277 28.867 139.217 29.1271 139.087 29.3773C138.957 29.6274 138.797 29.8475 138.588 30.0377C138.378 30.2278 138.148 30.3779 137.898 30.4879C137.648 30.598 137.378 30.658 137.098 30.658H131.809C131.529 30.658 131.259 30.598 131.009 30.4879C130.749 30.3779 130.519 30.2278 130.309 30.0377C130.099 29.8475 129.929 29.6274 129.799 29.3773C129.669 29.1271 129.609 28.857 129.609 28.5968V26.3355C129.609 26.0553 129.669 25.7952 129.799 25.545C129.929 25.2949 130.099 25.0747 130.309 24.8746C130.519 24.6745 130.749 24.5244 131.009 24.4244C131.259 24.3243 131.529 24.2643 131.809 24.2643H137.758V24.0141C137.758 23.0535 137.278 22.5833 136.318 22.5833ZM132.549 25.7952C131.609 25.7952 131.149 26.2654 131.149 27.196V27.7263C131.149 28.6668 131.619 29.1371 132.549 29.1371H136.328C137.288 29.1371 137.758 28.6668 137.758 27.7263V27.196C137.758 26.2654 137.278 25.7952 136.328 25.7952H132.549Z" fill="#F8F8FF"/>
<path d="M142.777 30.668V34H141.247V23.1236C141.247 22.8534 141.307 22.5933 141.437 22.3431C141.567 22.093 141.737 21.8628 141.947 21.6827C142.157 21.4926 142.387 21.3425 142.647 21.2325C142.897 21.1224 143.166 21.0624 143.446 21.0624H148.735C149.015 21.0624 149.285 21.1224 149.535 21.2325C149.795 21.3425 150.025 21.4926 150.225 21.6827C150.435 21.8729 150.595 22.093 150.725 22.3431C150.855 22.5933 150.915 22.8634 150.915 23.1236V28.5868C150.915 28.867 150.855 29.1271 150.725 29.3773C150.595 29.6274 150.435 29.8475 150.225 30.0377C150.015 30.2278 149.785 30.3879 149.535 30.4979C149.285 30.608 149.015 30.668 148.735 30.668H142.777ZM147.955 29.1371C148.915 29.1371 149.385 28.6568 149.385 27.7063V23.9941C149.385 23.0535 148.905 22.5833 147.955 22.5833H144.176C143.236 22.5833 142.777 23.0535 142.777 23.9941V27.7063C142.777 28.6568 143.246 29.1371 144.176 29.1371H147.955Z" fill="#F8F8FF"/>
<path d="M152.884 23.1436C152.884 22.8634 152.944 22.6033 153.074 22.3531C153.204 22.103 153.374 21.8829 153.584 21.6927C153.794 21.5026 154.024 21.3425 154.284 21.2325C154.534 21.1224 154.804 21.0624 155.084 21.0624H160.373C160.653 21.0624 160.923 21.1224 161.173 21.2325C161.433 21.3425 161.662 21.5026 161.862 21.6927C162.062 21.8829 162.232 22.103 162.362 22.3531C162.492 22.6033 162.552 22.8634 162.552 23.1436V28.6068C162.552 28.877 162.492 29.1371 162.362 29.3873C162.232 29.6374 162.072 29.8575 161.862 30.0477C161.652 30.2378 161.423 30.3879 161.173 30.4979C160.923 30.608 160.653 30.668 160.373 30.668H155.084C154.804 30.668 154.534 30.608 154.284 30.4979C154.024 30.3879 153.794 30.2378 153.584 30.0477C153.374 29.8575 153.204 29.6374 153.074 29.3873C152.944 29.1371 152.884 28.867 152.884 28.6068V23.1436ZM154.414 27.7263C154.414 28.6668 154.884 29.1371 155.814 29.1371H159.593C160.553 29.1371 161.023 28.6668 161.023 27.7263V24.0141C161.023 23.0636 160.543 22.5833 159.593 22.5833H155.814C154.874 22.5833 154.414 23.0636 154.414 24.0141V27.7263Z" fill="#F8F8FF"/>
<path d="M172 17.86C172.28 17.86 172.55 17.91 172.8 18.0201C173.06 18.1301 173.29 18.2802 173.5 18.4804C173.71 18.6805 173.88 18.9006 174 19.1407C174.13 19.3909 174.19 19.651 174.19 19.9312V28.6063C174.19 28.8765 174.13 29.1366 174 29.3868C173.87 29.6369 173.7 29.857 173.5 30.0472C173.29 30.2373 173.06 30.3874 172.8 30.4974C172.55 30.6075 172.28 30.6675 172 30.6675H166.711C166.431 30.6675 166.161 30.6075 165.912 30.4974C165.662 30.3874 165.422 30.2373 165.222 30.0472C165.012 29.857 164.852 29.6369 164.722 29.3868C164.592 29.1366 164.532 28.8665 164.532 28.6063V23.1431C164.532 22.8629 164.592 22.6028 164.722 22.3526C164.852 22.1025 165.012 21.8824 165.222 21.6922C165.432 21.5021 165.662 21.342 165.912 21.232C166.161 21.1219 166.431 21.0619 166.711 21.0619H172.67V20.8017C172.67 19.8712 172.2 19.4009 171.27 19.4009H164.972V17.87H172V17.86ZM172.66 24.0136C172.66 23.063 172.19 22.5828 171.26 22.5828H167.481C166.521 22.5828 166.051 23.063 166.051 24.0136V27.7258C166.051 28.6663 166.531 29.1366 167.481 29.1366H171.26C172.2 29.1366 172.66 28.6663 172.66 27.7258V24.0136Z" fill="#F8F8FF"/>
<path d="M184.297 26.5156H177.689V30.668H176.159V21.0524H177.689V24.9847H184.297V21.0524H185.827V30.668H184.297V26.5156Z" fill="#F8F8FF"/>
<path d="M189.326 23.7239H193.825C194.105 23.7239 194.375 23.774 194.635 23.884C194.895 23.9941 195.125 24.1442 195.325 24.3443C195.525 24.5444 195.685 24.7646 195.815 25.0047C195.945 25.2548 196.005 25.515 196.005 25.7952V28.5968C196.005 28.867 195.945 29.1271 195.815 29.3773C195.685 29.6274 195.525 29.8475 195.325 30.0377C195.125 30.2278 194.895 30.3779 194.635 30.4879C194.375 30.598 194.105 30.658 193.825 30.658H189.986C189.706 30.658 189.436 30.598 189.186 30.4879C188.937 30.3779 188.697 30.2278 188.487 30.0377C188.277 29.8475 188.107 29.6274 187.977 29.3773C187.847 29.1271 187.787 28.857 187.787 28.5968V21.0524H189.316V23.7239H189.326ZM189.326 25.2548V27.7263C189.326 28.6668 189.796 29.1371 190.726 29.1371H193.076C194.015 29.1371 194.475 28.6668 194.475 27.7263V26.6557C194.475 25.7251 194.005 25.2548 193.076 25.2548H189.326ZM197.355 21.0524H198.884V30.668H197.355V21.0524Z" fill="#F8F8FF"/>
<path d="M208.992 29.1371V21.0524H210.522V30.668H203.043C202.763 30.668 202.494 30.608 202.244 30.4979C201.994 30.3879 201.754 30.2378 201.544 30.0477C201.334 29.8576 201.164 29.6374 201.034 29.3873C200.904 29.1371 200.844 28.867 200.844 28.6068V21.0624H202.374V27.7363C202.374 28.6769 202.843 29.1472 203.773 29.1472H208.992V29.1371ZM205.143 19.6316L206.083 17.01H207.872L206.123 19.6316H205.143Z" fill="#F8F8FF"/>
<path d="M227.048 22.5833H220.779V21.0524H227.828C228.108 21.0524 228.378 21.1124 228.628 21.2225C228.888 21.3325 229.118 21.4926 229.318 21.6827C229.518 21.8729 229.688 22.093 229.818 22.3431C229.947 22.5933 230.007 22.8534 230.007 23.1336V28.5968C230.007 28.867 229.947 29.1271 229.818 29.3773C229.688 29.6274 229.528 29.8475 229.318 30.0377C229.108 30.2278 228.878 30.3779 228.628 30.4879C228.378 30.598 228.108 30.658 227.828 30.658H222.539C222.259 30.658 221.989 30.598 221.739 30.4879C221.489 30.3779 221.249 30.2278 221.039 30.0377C220.829 29.8475 220.66 29.6274 220.53 29.3773C220.4 29.1271 220.34 28.857 220.34 28.5968V26.3355C220.34 26.0553 220.4 25.7952 220.53 25.545C220.66 25.2949 220.829 25.0747 221.039 24.8746C221.249 24.6745 221.479 24.5244 221.739 24.4244C221.999 24.3243 222.259 24.2643 222.539 24.2643H228.488V24.0141C228.478 23.0535 227.998 22.5833 227.048 22.5833ZM223.269 25.7952C222.329 25.7952 221.869 26.2654 221.869 27.196V27.7263C221.869 28.6668 222.339 29.1371 223.269 29.1371H227.048C228.008 29.1371 228.478 28.6668 228.478 27.7263V27.196C228.478 26.2654 227.998 25.7952 227.048 25.7952H223.269Z" fill="#F8F8FF"/>
<path d="M240.115 26.5156H235.076V24.9847H240.115V24.0141C240.115 23.0636 239.635 22.5833 238.686 22.5833H235.256C234.317 22.5833 233.857 23.0636 233.857 24.0141H232.327V23.1436C232.327 22.8634 232.387 22.6033 232.507 22.3531C232.627 22.103 232.797 21.8829 233.007 21.6927C233.217 21.5026 233.447 21.3425 233.707 21.2325C233.967 21.1224 234.227 21.0624 234.497 21.0624H239.465C239.745 21.0624 240.015 21.1224 240.265 21.2325C240.525 21.3425 240.755 21.5026 240.955 21.6927C241.155 21.8829 241.325 22.103 241.455 22.3531C241.585 22.6033 241.645 22.8634 241.645 23.1436V28.6068C241.645 28.877 241.585 29.1371 241.455 29.3873C241.325 29.6374 241.165 29.8575 240.955 30.0477C240.745 30.2378 240.515 30.3879 240.265 30.4979C240.015 30.608 239.745 30.668 239.465 30.668H234.177C233.897 30.668 233.627 30.608 233.377 30.4979C233.127 30.3879 232.887 30.2378 232.677 30.0477C232.467 29.8575 232.297 29.6374 232.167 29.3873C232.037 29.1371 231.977 28.867 231.977 28.6068V27.7363H233.507C233.507 28.6769 233.977 29.1471 234.906 29.1471H238.686C239.645 29.1471 240.115 28.6769 240.115 27.7363V26.5156Z" fill="#F8F8FF"/>
<path d="M245.134 30.668V34H243.605V23.1236C243.605 22.8534 243.665 22.5933 243.795 22.3431C243.924 22.093 244.094 21.8628 244.304 21.6827C244.514 21.4926 244.744 21.3425 245.004 21.2325C245.264 21.1224 245.524 21.0624 245.804 21.0624H251.093C251.373 21.0624 251.643 21.1224 251.893 21.2325C252.153 21.3425 252.383 21.4926 252.583 21.6827C252.793 21.8729 252.953 22.093 253.082 22.3431C253.212 22.5933 253.272 22.8634 253.272 23.1236V28.5868C253.272 28.867 253.212 29.1271 253.082 29.3773C252.953 29.6274 252.793 29.8475 252.583 30.0377C252.373 30.2278 252.143 30.3879 251.893 30.4979C251.643 30.608 251.373 30.668 251.093 30.668H245.134ZM250.323 29.1371C251.283 29.1371 251.753 28.6568 251.753 27.7063V23.9941C251.753 23.0535 251.273 22.5833 250.323 22.5833H246.544C245.604 22.5833 245.144 23.0535 245.144 23.9941V27.7063C245.144 28.6568 245.614 29.1371 246.544 29.1371H250.323Z" fill="#F8F8FF"/>
<path d="M255.242 23.1436C255.242 22.8634 255.302 22.6033 255.432 22.3531C255.562 22.103 255.732 21.8829 255.942 21.6927C256.152 21.5026 256.382 21.3425 256.642 21.2325C256.902 21.1224 257.162 21.0624 257.442 21.0624H262.73C263.01 21.0624 263.28 21.1224 263.53 21.2325C263.79 21.3425 264.02 21.5026 264.22 21.6927C264.42 21.8829 264.59 22.103 264.72 22.3531C264.85 22.6033 264.91 22.8634 264.91 23.1436V28.6068C264.91 28.877 264.85 29.1371 264.72 29.3873C264.59 29.6374 264.43 29.8575 264.22 30.0477C264.01 30.2378 263.78 30.3879 263.53 30.4979C263.28 30.608 263.01 30.668 262.73 30.668H257.442C257.162 30.668 256.892 30.608 256.642 30.4979C256.392 30.3879 256.152 30.2378 255.942 30.0477C255.732 29.8575 255.562 29.6374 255.432 29.3873C255.302 29.1371 255.242 28.867 255.242 28.6068V23.1436ZM256.772 27.7263C256.772 28.6668 257.242 29.1371 258.171 29.1371H261.951C262.91 29.1371 263.38 28.6668 263.38 27.7263V24.0141C263.38 23.0636 262.9 22.5833 261.951 22.5833H258.171C257.232 22.5833 256.772 23.0636 256.772 24.0141V27.7263Z" fill="#F8F8FF"/>
<path d="M268.409 22.5833V30.668H266.879V21.0524H274.358C274.638 21.0524 274.908 21.1124 275.158 21.2225C275.418 21.3325 275.648 21.4826 275.857 21.6727C276.067 21.8628 276.237 22.083 276.357 22.3331C276.487 22.5833 276.547 22.8534 276.547 23.1136V30.658H275.018V23.9841C275.018 23.0435 274.548 22.5733 273.618 22.5733H268.409V22.5833Z" fill="#F8F8FF"/>
<path d="M278.517 23.1436C278.517 22.8634 278.577 22.6033 278.707 22.3531C278.837 22.103 279.007 21.8829 279.217 21.6927C279.427 21.5026 279.657 21.3425 279.917 21.2325C280.176 21.1224 280.436 21.0624 280.716 21.0624H286.005C286.285 21.0624 286.555 21.1224 286.805 21.2325C287.065 21.3425 287.295 21.5026 287.495 21.6927C287.695 21.8829 287.865 22.103 287.995 22.3531C288.125 22.6033 288.185 22.8634 288.185 23.1436V28.6068C288.185 28.877 288.125 29.1371 287.995 29.3873C287.865 29.6374 287.705 29.8575 287.495 30.0477C287.285 30.2378 287.055 30.3879 286.805 30.4979C286.555 30.608 286.285 30.668 286.005 30.668H280.716C280.436 30.668 280.166 30.608 279.917 30.4979C279.667 30.3879 279.427 30.2378 279.217 30.0477C279.007 29.8575 278.837 29.6374 278.707 29.3873C278.577 29.1371 278.517 28.867 278.517 28.6068V23.1436ZM280.047 27.7263C280.047 28.6668 280.516 29.1371 281.446 29.1371H285.225C286.185 29.1371 286.655 28.6668 286.655 27.7263V24.0141C286.655 23.0636 286.175 22.5833 285.225 22.5833H281.446C280.506 22.5833 280.047 23.0636 280.047 24.0141V27.7263Z" fill="#F8F8FF"/>
<path d="M291.684 30.668V34H290.154V23.1236C290.154 22.8534 290.214 22.5933 290.344 22.3431C290.474 22.093 290.644 21.8628 290.854 21.6827C291.064 21.4926 291.294 21.3425 291.554 21.2325C291.814 21.1224 292.074 21.0624 292.354 21.0624H297.643C297.923 21.0624 298.193 21.1224 298.442 21.2325C298.702 21.3425 298.932 21.4926 299.132 21.6827C299.342 21.8729 299.502 22.093 299.632 22.3431C299.762 22.5933 299.822 22.8634 299.822 23.1236V28.5868C299.822 28.867 299.762 29.1271 299.632 29.3773C299.502 29.6274 299.342 29.8475 299.132 30.0377C298.922 30.2278 298.692 30.3879 298.442 30.4979C298.193 30.608 297.923 30.668 297.643 30.668H291.684ZM296.863 29.1371C297.823 29.1371 298.293 28.6568 298.293 27.7063V23.9941C298.293 23.0535 297.813 22.5833 296.863 22.5833H293.084C292.144 22.5833 291.684 23.0535 291.684 23.9941V27.7063C291.684 28.6568 292.154 29.1371 293.084 29.1371H296.863Z" fill="#F8F8FF"/>
<path d="M305.131 22.5833H301.782V21.0524H310V22.5833H306.651V30.668H305.121V22.5833H305.131Z" fill="#F8F8FF"/>
</svg>
