<svg width="310" height="34" viewBox="0 0 310 34" fill="none" xmlns="http://www.w3.org/2000/svg">
<g clip-path="url(#clip0)">
<path d="M34.52 20.66H34.05C33.84 20.66 33.65 20.78 33.56 20.99C33.5 21.12 33.44 21.27 33.37 21.41C31.11 26.26 26.15 29.61 20.42 29.53C16.81 29.47 13.51 28.05 11.04 25.74C12.68 25.64 14.41 25.4 16.21 25.03C17.15 24.84 18.12 24.6 19.09 24.35L18.17 26.14C17.98 26.51 18.13 26.97 18.51 27.16C18.62 27.22 18.73 27.24 18.86 27.24C19.14 27.24 19.4 27.09 19.53 26.82L21.2 23.54C21.23 23.48 21.24 23.42 21.27 23.35C21.29 23.28 21.3 23.2 21.3 23.13C21.3 22.98 21.26 22.86 21.19 22.75C21.17 22.72 21.16 22.69 21.13 22.66C21.13 22.66 21.12 22.65 21.12 22.64C21.05 22.55 20.96 22.48 20.86 22.44L17.55 20.82C17.18 20.64 16.72 20.79 16.54 21.17C16.36 21.54 16.51 22 16.89 22.18L18.46 22.95C15.35 23.77 12.35 24.23 9.70001 24.26C7.86001 22 6.73001 19.17 6.60001 16.08C6.57001 15.12 6.62001 14.17 6.77001 13.26C9.74001 10.98 13.63 8.9 17.97 7.28C22.17 5.72 26.06 4.85 29.34 4.54C30.87 5.75 32.15 7.27 33.07 9C33.15 9.16 33.23 9.3 33.31 9.46C33.4 9.64 33.58 9.76 33.79 9.76H34.27C34.66 9.76 34.92 9.36 34.75 9.01C34.75 9.01 34.75 9.01 34.75 9C33.95 7.27 32.84 5.72 31.48 4.41C31.63 4.41 31.77 4.4 31.91 4.4C36.08 4.4 38.88 5.48 39.56 7.27C39.67 7.57 39.95 7.79 40.28 7.79C40.8 7.79 41.18 7.27 41 6.79C41 6.78 40.99 6.76 40.99 6.75C40.09 4.36 37.07 3 32.48 2.9C31.63 2.88 30.73 2.91 29.8 2.98C27.05 0.999998 23.65 -0.130002 19.99 0.00999816C12.79 0.319998 6.82001 5.56 5.41001 12.41C4.97001 12.76 4.56001 13.11 4.16001 13.46C0.750014 16.53 -0.639986 19.54 0.260014 21.93C1.16001 24.32 4.18001 25.68 8.77001 25.78C8.84001 25.78 8.92001 25.78 8.99001 25.78C11.84 28.99 16 31.02 20.64 31.02C27.13 31.02 32.7 27.04 35.03 21.4C35.03 21.4 35.03 21.4 35.03 21.39C35.17 21.05 34.91 20.66 34.52 20.66ZM20.64 1.53C23.1 1.53 25.4 2.16 27.41 3.27C24.25 3.72 20.85 4.6 17.45 5.87C13.68 7.27 10.21 9.04 7.36001 10.99C9.25001 5.49 14.49 1.53 20.64 1.53ZM1.68001 21.4C1.03001 19.67 2.29001 17.22 5.12001 14.65C5.12001 14.74 5.11001 14.83 5.11001 14.91C4.98001 18.37 5.99001 21.58 7.78001 24.22C4.48001 23.98 2.28001 22.99 1.68001 21.4Z" fill="url(#paint0_linear)"/>
<path d="M42.61 11.05C41.96 10.3 40.72 10.09 38.85 10.4C38.55 10.44 38.25 10.55 37.97 10.67L33.04 12.96C31.78 11.98 28.08 9.44 25.17 10.41C24.71 10.57 24.36 10.95 24.24 11.42C24.12 11.9 24.25 12.41 24.59 12.78C26.07 14.37 26.91 15.27 27.4 15.79L25.27 17.14C25.26 17.14 25.26 17.14 25.25 17.15L19.63 17.48C19.25 17.5 18.93 17.77 18.86 18.15C18.78 18.52 18.97 18.9 19.31 19.06L24.53 21.61C24.71 21.7 24.9 21.74 25.09 21.74C25.27 21.74 25.46 21.7 25.63 21.62L42.25 13.89C42.55 13.74 42.79 13.49 42.9 13.16C43.17 12.34 43.07 11.58 42.61 11.05ZM41.5 12.55L25.1 20.18L22.31 18.82L25.34 18.64C25.6 18.63 25.86 18.54 26.08 18.4L28.61 16.81C28.9 16.63 29.09 16.33 29.13 15.99C29.18 15.65 29.06 15.32 28.83 15.07C28.45 14.67 27.61 13.78 25.77 11.82C28.12 11.14 31.57 13.72 32.24 14.25C32.61 14.54 33.1 14.6 33.54 14.41L38.62 12.04C38.78 11.97 38.93 11.92 39.1 11.88C40.95 11.57 41.39 11.95 41.46 12.03C41.57 12.16 41.53 12.41 41.5 12.55Z" fill="url(#paint1_linear)"/>
<path d="M54.33 9.3L52.74 12.81H50.71L55.91 1.35C56.09 0.85 56.34 0.5 56.66 0.3C56.98 0.1 57.31 0 57.68 0C58.07 0 58.42 0.1 58.71 0.3C59.01 0.5 59.25 0.85 59.45 1.35L64.66 12.81H62.63L61.03 9.3H54.33ZM55.15 7.48H60.22L57.68 1.93L55.15 7.48Z" fill="url(#paint2_linear)"/>
<path d="M66.06 1.81V0H76.29V1.81H72.1V12.81H70.24V1.81H66.06Z" fill="url(#paint3_linear)"/>
<path d="M88.47 11V12.81H81.3C80.92 12.81 80.54 12.74 80.19 12.59C79.83 12.44 79.5 12.25 79.23 12C78.95 11.75 78.73 11.46 78.55 11.11C78.39 10.76 78.29 10.4 78.29 10V0H80.15V8.99C80.15 10.33 80.85 11 82.23 11H88.47Z" fill="url(#paint4_linear)"/>
<path d="M93.49 9.3L91.9 12.81H89.87L95.07 1.35C95.25 0.85 95.5 0.5 95.82 0.3C96.14 0.1 96.48 0 96.85 0C97.24 0 97.59 0.1 97.88 0.3C98.18 0.5 98.42 0.85 98.62 1.35L103.83 12.81H101.8L100.2 9.3H93.49ZM94.31 7.48H99.38L96.84 1.93L94.31 7.48Z" fill="url(#paint5_linear)"/>
<path d="M105.22 1.81V0H115.45V1.81H111.27V12.81H109.41V1.81H105.22Z" fill="url(#paint6_linear)"/>
<path d="M120.47 9.3L118.88 12.81H116.85L122.05 1.35C122.23 0.85 122.48 0.5 122.8 0.3C123.12 0.1 123.45 0 123.82 0C124.21 0 124.56 0.1 124.85 0.3C125.15 0.5 125.39 0.85 125.59 1.35L130.8 12.81H128.78L127.18 9.3H120.47ZM121.29 7.48H126.36L123.82 1.93L121.29 7.48Z" fill="url(#paint7_linear)"/>
<path d="M54.33 9.3L52.74 12.81H50.71L55.91 1.35C56.09 0.85 56.34 0.5 56.66 0.3C56.98 0.1 57.31 0 57.68 0C58.07 0 58.42 0.1 58.71 0.3C59.01 0.5 59.25 0.85 59.45 1.35L64.66 12.81H62.63L61.03 9.3H54.33ZM55.15 7.48H60.22L57.68 1.93L55.15 7.48Z" fill="url(#paint8_linear)"/>
<path d="M66.06 1.81V0H76.29V1.81H72.1V12.81H70.24V1.81H66.06Z" fill="url(#paint9_linear)"/>
<path d="M88.47 11V12.81H81.3C80.92 12.81 80.54 12.74 80.19 12.59C79.83 12.44 79.5 12.25 79.23 12C78.95 11.75 78.73 11.46 78.55 11.11C78.39 10.76 78.29 10.4 78.29 10V0H80.15V8.99C80.15 10.33 80.85 11 82.23 11H88.47Z" fill="url(#paint10_linear)"/>
<path d="M93.49 9.3L91.9 12.81H89.87L95.07 1.35C95.25 0.85 95.5 0.5 95.82 0.3C96.14 0.1 96.48 0 96.85 0C97.24 0 97.59 0.1 97.88 0.3C98.18 0.5 98.42 0.85 98.62 1.35L103.83 12.81H101.8L100.2 9.3H93.49ZM94.31 7.48H99.38L96.84 1.93L94.31 7.48Z" fill="url(#paint11_linear)"/>
<path d="M105.22 1.81V0H115.45V1.81H111.27V12.81H109.41V1.81H105.22Z" fill="url(#paint12_linear)"/>
<path d="M120.47 9.3L118.88 12.81H116.85L122.05 1.35C122.23 0.85 122.48 0.5 122.8 0.3C123.12 0.1 123.45 0 123.82 0C124.21 0 124.56 0.1 124.85 0.3C125.15 0.5 125.39 0.85 125.59 1.35L130.8 12.81H128.78L127.18 9.3H120.47ZM121.29 7.48H126.36L123.82 1.93L121.29 7.48Z" fill="url(#paint13_linear)"/>
<path d="M54.33 9.3L52.74 12.81H50.71L55.91 1.35C56.09 0.85 56.34 0.5 56.66 0.3C56.98 0.1 57.31 0 57.68 0C58.07 0 58.42 0.1 58.71 0.3C59.01 0.5 59.25 0.85 59.45 1.35L64.66 12.81H62.63L61.03 9.3H54.33ZM55.15 7.48H60.22L57.68 1.93L55.15 7.48Z" fill="url(#paint14_linear)"/>
<path d="M66.06 1.81V0H76.29V1.81H72.1V12.81H70.24V1.81H66.06Z" fill="url(#paint15_linear)"/>
<path d="M88.47 11V12.81H81.3C80.92 12.81 80.54 12.74 80.19 12.59C79.83 12.44 79.5 12.25 79.23 12C78.95 11.75 78.73 11.46 78.55 11.11C78.39 10.76 78.29 10.4 78.29 10V0H80.15V8.99C80.15 10.33 80.85 11 82.23 11H88.47Z" fill="url(#paint16_linear)"/>
<path d="M93.49 9.3L91.9 12.81H89.87L95.07 1.35C95.25 0.85 95.5 0.5 95.82 0.3C96.14 0.1 96.48 0 96.85 0C97.24 0 97.59 0.1 97.88 0.3C98.18 0.5 98.42 0.85 98.62 1.35L103.83 12.81H101.8L100.2 9.3H93.49ZM94.31 7.48H99.38L96.84 1.93L94.31 7.48Z" fill="url(#paint17_linear)"/>
<path d="M105.22 1.81V0H115.45V1.81H111.27V12.81H109.41V1.81H105.22Z" fill="url(#paint18_linear)"/>
<path d="M120.47 9.3L118.88 12.81H116.85L122.05 1.35C122.23 0.85 122.48 0.5 122.8 0.3C123.12 0.1 123.45 0 123.82 0C124.21 0 124.56 0.1 124.85 0.3C125.15 0.5 125.39 0.85 125.59 1.35L130.8 12.81H128.78L127.18 9.3H120.47ZM121.29 7.48H126.36L123.82 1.93L121.29 7.48Z" fill="url(#paint19_linear)"/>
<path d="M60.2 29.44C60.04 29.88 59.8 30.2 59.5 30.39C59.2 30.58 58.85 30.67 58.45 30.67C58.04 30.67 57.69 30.58 57.39 30.39C57.09 30.2 56.86 29.89 56.7 29.44L52.53 19.47V30.66H50.71V19.71C50.71 19.2 50.89 18.76 51.25 18.4C51.61 18.04 52.05 17.86 52.56 17.86C53.04 17.86 53.42 17.96 53.68 18.16C53.95 18.36 54.14 18.63 54.26 18.96L58.44 28.92L62.62 18.96C62.74 18.63 62.93 18.36 63.19 18.16C63.45 17.96 63.83 17.86 64.33 17.86C64.84 17.86 65.28 18.04 65.64 18.4C66 18.76 66.18 19.2 66.18 19.71V30.67H64.36V19.47L60.2 29.44Z" fill="url(#paint20_linear)"/>
<path d="M77.83 24.42C77.83 24.7 77.77 24.96 77.64 25.21C77.51 25.46 77.35 25.68 77.15 25.87C76.95 26.06 76.72 26.22 76.46 26.33C76.2 26.44 75.93 26.5 75.65 26.5H69.69V27.71C69.69 28.65 70.16 29.12 71.09 29.12H77.83V30.65H70.35C70.07 30.65 69.8 30.59 69.55 30.48C69.29 30.37 69.06 30.22 68.85 30.03C68.64 29.84 68.47 29.62 68.34 29.37C68.21 29.12 68.15 28.85 68.15 28.59V23.13C68.15 22.85 68.21 22.59 68.34 22.34C68.47 22.09 68.64 21.87 68.85 21.68C69.06 21.49 69.29 21.33 69.55 21.22C69.8 21.11 70.07 21.05 70.35 21.05H75.64C75.92 21.05 76.19 21.11 76.45 21.22C76.71 21.33 76.94 21.49 77.14 21.68C77.34 21.87 77.5 22.09 77.63 22.34C77.76 22.59 77.82 22.85 77.82 23.13V24.42H77.83ZM75.09 24.98C75.25 24.98 75.41 24.95 75.56 24.89C75.71 24.83 75.84 24.74 75.95 24.63C76.06 24.52 76.15 24.39 76.21 24.25C76.27 24.11 76.3 23.95 76.3 23.78C76.3 23.62 76.27 23.46 76.21 23.31C76.15 23.16 76.06 23.04 75.95 22.93C75.84 22.82 75.71 22.74 75.56 22.68C75.41 22.62 75.26 22.59 75.09 22.59H71.09C70.15 22.59 69.69 23.07 69.69 24.02V24.99H75.09V24.98Z" fill="url(#paint21_linear)"/>
<path d="M87.03 25.09L90.92 21.05H93.05L88.46 25.82L93.34 30.66H91.2L87.04 26.59V30.66H85.51V26.6L81.35 30.67H79.21L84.09 25.83L79.5 21.06H81.63L85.52 25.1V21.06H87.05V25.1H87.03V25.09Z" fill="url(#paint22_linear)"/>
<path d="M102.18 17.86C102.46 17.86 102.73 17.91 102.98 18.02C103.23 18.13 103.47 18.28 103.68 18.48C103.89 18.68 104.06 18.9 104.19 19.14C104.32 19.39 104.38 19.65 104.38 19.93V28.61C104.38 28.88 104.32 29.14 104.19 29.39C104.06 29.64 103.89 29.86 103.68 30.05C103.47 30.24 103.24 30.39 102.98 30.5C102.72 30.61 102.46 30.67 102.18 30.67H96.89C96.61 30.67 96.34 30.61 96.09 30.5C95.84 30.39 95.6 30.24 95.4 30.05C95.19 29.86 95.03 29.64 94.9 29.39C94.77 29.14 94.71 28.87 94.71 28.61V23.15C94.71 22.87 94.77 22.61 94.9 22.36C95.03 22.11 95.19 21.89 95.4 21.7C95.61 21.51 95.84 21.35 96.09 21.24C96.35 21.13 96.61 21.07 96.89 21.07H102.85V20.8C102.85 19.87 102.38 19.4 101.45 19.4H95.15V17.87H102.18V17.86ZM102.85 24.01C102.85 23.06 102.38 22.58 101.45 22.58H97.67C96.71 22.58 96.24 23.06 96.24 24.01V27.72C96.24 28.66 96.72 29.13 97.67 29.13H101.45C102.39 29.13 102.85 28.66 102.85 27.72V24.01Z" fill="url(#paint23_linear)"/>
<path d="M114.48 21.05H116.01V31.93C116.01 32.2 115.95 32.46 115.82 32.71C115.69 32.96 115.53 33.18 115.32 33.37C115.11 33.56 114.88 33.71 114.63 33.82C114.38 33.93 114.11 33.99 113.83 33.99H106.78V32.46H113.05C114.01 32.46 114.48 31.99 114.48 31.05V30.66H108.53C108.25 30.66 107.98 30.6 107.73 30.49C107.47 30.38 107.24 30.23 107.03 30.04C106.82 29.85 106.65 29.63 106.52 29.38C106.39 29.13 106.33 28.86 106.33 28.6V21.06H107.86V27.73C107.86 28.67 108.33 29.14 109.26 29.14H113.04C114 29.14 114.47 28.67 114.47 27.73V21.06H114.48V21.05Z" fill="url(#paint24_linear)"/>
<path d="M126.12 26.52H119.51V30.67H117.98V21.05H119.51V24.98H126.12V21.05H127.65V30.67H126.12V26.52Z" fill="url(#paint25_linear)"/>
<path d="M136.32 22.58H130.05V21.05H137.1C137.38 21.05 137.65 21.11 137.9 21.22C138.16 21.33 138.39 21.49 138.59 21.68C138.79 21.87 138.96 22.09 139.09 22.34C139.22 22.59 139.28 22.85 139.28 23.13V28.59C139.28 28.86 139.22 29.12 139.09 29.37C138.96 29.62 138.8 29.84 138.59 30.03C138.38 30.22 138.15 30.37 137.9 30.48C137.65 30.59 137.38 30.65 137.1 30.65H131.81C131.53 30.65 131.26 30.59 131.01 30.48C130.75 30.37 130.52 30.22 130.31 30.03C130.1 29.84 129.93 29.62 129.8 29.37C129.67 29.12 129.61 28.85 129.61 28.59V26.33C129.61 26.05 129.67 25.79 129.8 25.54C129.93 25.29 130.1 25.07 130.31 24.87C130.52 24.67 130.75 24.52 131.01 24.42C131.26 24.32 131.53 24.26 131.81 24.26H137.76V24.01C137.76 23.05 137.28 22.58 136.32 22.58ZM132.55 25.8C131.61 25.8 131.15 26.27 131.15 27.2V27.73C131.15 28.67 131.62 29.14 132.55 29.14H136.33C137.29 29.14 137.76 28.67 137.76 27.73V27.2C137.76 26.27 137.28 25.8 136.33 25.8H132.55Z" fill="url(#paint26_linear)"/>
<path d="M142.78 30.67V34H141.25V23.12C141.25 22.85 141.31 22.59 141.44 22.34C141.57 22.09 141.74 21.86 141.95 21.68C142.16 21.49 142.39 21.34 142.65 21.23C142.9 21.12 143.17 21.06 143.45 21.06H148.74C149.02 21.06 149.29 21.12 149.54 21.23C149.8 21.34 150.03 21.49 150.23 21.68C150.44 21.87 150.6 22.09 150.73 22.34C150.86 22.59 150.92 22.86 150.92 23.12V28.58C150.92 28.86 150.86 29.12 150.73 29.37C150.6 29.62 150.44 29.84 150.23 30.03C150.02 30.22 149.79 30.38 149.54 30.49C149.29 30.6 149.02 30.66 148.74 30.66H142.78V30.67ZM147.96 29.14C148.92 29.14 149.39 28.66 149.39 27.71V24C149.39 23.06 148.91 22.59 147.96 22.59H144.18C143.24 22.59 142.78 23.06 142.78 24V27.71C142.78 28.66 143.25 29.14 144.18 29.14H147.96Z" fill="url(#paint27_linear)"/>
<path d="M152.88 23.14C152.88 22.86 152.94 22.6 153.07 22.35C153.2 22.1 153.37 21.88 153.58 21.69C153.79 21.5 154.02 21.34 154.28 21.23C154.53 21.12 154.8 21.06 155.08 21.06H160.37C160.65 21.06 160.92 21.12 161.17 21.23C161.43 21.34 161.66 21.5 161.86 21.69C162.06 21.88 162.23 22.1 162.36 22.35C162.49 22.6 162.55 22.86 162.55 23.14V28.6C162.55 28.87 162.49 29.13 162.36 29.38C162.23 29.63 162.07 29.85 161.86 30.04C161.65 30.23 161.42 30.38 161.17 30.49C160.92 30.6 160.65 30.66 160.37 30.66H155.08C154.8 30.66 154.53 30.6 154.28 30.49C154.02 30.38 153.79 30.23 153.58 30.04C153.37 29.85 153.2 29.63 153.07 29.38C152.94 29.13 152.88 28.86 152.88 28.6V23.14ZM154.41 27.73C154.41 28.67 154.88 29.14 155.81 29.14H159.59C160.55 29.14 161.02 28.67 161.02 27.73V24.02C161.02 23.07 160.54 22.59 159.59 22.59H155.81C154.87 22.59 154.41 23.07 154.41 24.02V27.73Z" fill="url(#paint28_linear)"/>
<path d="M172 17.86C172.28 17.86 172.55 17.91 172.8 18.02C173.06 18.13 173.29 18.28 173.5 18.48C173.71 18.68 173.88 18.9 174 19.14C174.13 19.39 174.19 19.65 174.19 19.93V28.61C174.19 28.88 174.13 29.14 174 29.39C173.87 29.64 173.7 29.86 173.5 30.05C173.29 30.24 173.06 30.39 172.8 30.5C172.55 30.61 172.28 30.67 172 30.67H166.71C166.43 30.67 166.16 30.61 165.91 30.5C165.66 30.39 165.42 30.24 165.22 30.05C165.01 29.86 164.85 29.64 164.72 29.39C164.59 29.14 164.53 28.87 164.53 28.61V23.15C164.53 22.87 164.59 22.61 164.72 22.36C164.85 22.11 165.01 21.89 165.22 21.7C165.43 21.51 165.66 21.35 165.91 21.24C166.16 21.13 166.43 21.07 166.71 21.07H172.67V20.8C172.67 19.87 172.2 19.4 171.27 19.4H164.97V17.87H172V17.86ZM172.66 24.01C172.66 23.06 172.19 22.58 171.26 22.58H167.48C166.52 22.58 166.05 23.06 166.05 24.01V27.72C166.05 28.66 166.53 29.13 167.48 29.13H171.26C172.2 29.13 172.66 28.66 172.66 27.72V24.01Z" fill="url(#paint29_linear)"/>
<path d="M184.3 26.52H177.69V30.67H176.16V21.05H177.69V24.98H184.3V21.05H185.83V30.67H184.3V26.52Z" fill="url(#paint30_linear)"/>
<path d="M189.33 23.72H193.83C194.11 23.72 194.38 23.77 194.64 23.88C194.9 23.99 195.13 24.14 195.33 24.34C195.53 24.54 195.69 24.76 195.82 25C195.95 25.25 196.01 25.51 196.01 25.79V28.59C196.01 28.86 195.95 29.12 195.82 29.37C195.69 29.62 195.53 29.84 195.33 30.03C195.13 30.22 194.9 30.37 194.64 30.48C194.38 30.59 194.11 30.65 193.83 30.65H189.99C189.71 30.65 189.44 30.59 189.19 30.48C188.94 30.37 188.7 30.22 188.49 30.03C188.28 29.84 188.11 29.62 187.98 29.37C187.85 29.12 187.79 28.85 187.79 28.59V21.05H189.32V23.72H189.33ZM189.33 25.25V27.72C189.33 28.66 189.8 29.13 190.73 29.13H193.08C194.02 29.13 194.48 28.66 194.48 27.72V26.65C194.48 25.72 194.01 25.25 193.08 25.25H189.33ZM197.35 21.05H198.88V30.67H197.35V21.05Z" fill="url(#paint31_linear)"/>
<path d="M208.99 29.14V21.06H210.52V30.68H203.04C202.76 30.68 202.49 30.62 202.24 30.51C201.99 30.4 201.75 30.25 201.54 30.06C201.33 29.87 201.16 29.65 201.03 29.4C200.9 29.15 200.84 28.88 200.84 28.62V21.08H202.37V27.75C202.37 28.69 202.84 29.16 203.77 29.16H208.99V29.14ZM205.14 19.63L206.08 17.01H207.87L206.12 19.63H205.14Z" fill="url(#paint32_linear)"/>
<path d="M227.05 22.58H220.78V21.05H227.83C228.11 21.05 228.38 21.11 228.63 21.22C228.89 21.33 229.12 21.49 229.32 21.68C229.52 21.87 229.69 22.09 229.82 22.34C229.95 22.59 230.01 22.85 230.01 23.13V28.59C230.01 28.86 229.95 29.12 229.82 29.37C229.69 29.62 229.53 29.84 229.32 30.03C229.11 30.22 228.88 30.37 228.63 30.48C228.38 30.59 228.11 30.65 227.83 30.65H222.54C222.26 30.65 221.99 30.59 221.74 30.48C221.49 30.37 221.25 30.22 221.04 30.03C220.83 29.84 220.66 29.62 220.53 29.37C220.4 29.12 220.34 28.85 220.34 28.59V26.33C220.34 26.05 220.4 25.79 220.53 25.54C220.66 25.29 220.83 25.07 221.04 24.87C221.25 24.67 221.48 24.52 221.74 24.42C222 24.32 222.26 24.26 222.54 24.26H228.49V24.01C228.48 23.05 228 22.58 227.05 22.58ZM223.27 25.8C222.33 25.8 221.87 26.27 221.87 27.2V27.73C221.87 28.67 222.34 29.14 223.27 29.14H227.05C228.01 29.14 228.48 28.67 228.48 27.73V27.2C228.48 26.27 228 25.8 227.05 25.8H223.27Z" fill="url(#paint33_linear)"/>
<path d="M240.12 26.52H235.08V24.99H240.12V24.02C240.12 23.07 239.64 22.59 238.69 22.59H235.26C234.32 22.59 233.86 23.07 233.86 24.02H232.33V23.15C232.33 22.87 232.39 22.61 232.51 22.36C232.63 22.11 232.8 21.89 233.01 21.7C233.22 21.51 233.45 21.35 233.71 21.24C233.97 21.13 234.23 21.07 234.5 21.07H239.47C239.75 21.07 240.02 21.13 240.27 21.24C240.53 21.35 240.76 21.51 240.96 21.7C241.16 21.89 241.33 22.11 241.46 22.36C241.59 22.61 241.65 22.87 241.65 23.15V28.61C241.65 28.88 241.59 29.14 241.46 29.39C241.33 29.64 241.17 29.86 240.96 30.05C240.75 30.24 240.52 30.39 240.27 30.5C240.02 30.61 239.75 30.67 239.47 30.67H234.18C233.9 30.67 233.63 30.61 233.38 30.5C233.13 30.39 232.89 30.24 232.68 30.05C232.47 29.86 232.3 29.64 232.17 29.39C232.04 29.14 231.98 28.87 231.98 28.61V27.74H233.51C233.51 28.68 233.98 29.15 234.91 29.15H238.69C239.65 29.15 240.12 28.68 240.12 27.74V26.52Z" fill="url(#paint34_linear)"/>
<path d="M245.13 30.67V34H243.6V23.12C243.6 22.85 243.66 22.59 243.79 22.34C243.92 22.09 244.09 21.86 244.3 21.68C244.51 21.49 244.74 21.34 245 21.23C245.26 21.12 245.52 21.06 245.8 21.06H251.09C251.37 21.06 251.64 21.12 251.89 21.23C252.15 21.34 252.38 21.49 252.58 21.68C252.79 21.87 252.95 22.09 253.08 22.34C253.21 22.59 253.27 22.86 253.27 23.12V28.58C253.27 28.86 253.21 29.12 253.08 29.37C252.95 29.62 252.79 29.84 252.58 30.03C252.37 30.22 252.14 30.38 251.89 30.49C251.64 30.6 251.37 30.66 251.09 30.66H245.13V30.67ZM250.32 29.14C251.28 29.14 251.75 28.66 251.75 27.71V24C251.75 23.06 251.27 22.59 250.32 22.59H246.54C245.6 22.59 245.14 23.06 245.14 24V27.71C245.14 28.66 245.61 29.14 246.54 29.14H250.32Z" fill="url(#paint35_linear)"/>
<path d="M255.24 23.14C255.24 22.86 255.3 22.6 255.43 22.35C255.56 22.1 255.73 21.88 255.94 21.69C256.15 21.5 256.38 21.34 256.64 21.23C256.9 21.12 257.16 21.06 257.44 21.06H262.73C263.01 21.06 263.28 21.12 263.53 21.23C263.79 21.34 264.02 21.5 264.22 21.69C264.42 21.88 264.59 22.1 264.72 22.35C264.85 22.6 264.91 22.86 264.91 23.14V28.6C264.91 28.87 264.85 29.13 264.72 29.38C264.59 29.63 264.43 29.85 264.22 30.04C264.01 30.23 263.78 30.38 263.53 30.49C263.28 30.6 263.01 30.66 262.73 30.66H257.44C257.16 30.66 256.89 30.6 256.64 30.49C256.39 30.38 256.15 30.23 255.94 30.04C255.73 29.85 255.56 29.63 255.43 29.38C255.3 29.13 255.24 28.86 255.24 28.6V23.14ZM256.77 27.73C256.77 28.67 257.24 29.14 258.17 29.14H261.95C262.91 29.14 263.38 28.67 263.38 27.73V24.02C263.38 23.07 262.9 22.59 261.95 22.59H258.17C257.23 22.59 256.77 23.07 256.77 24.02V27.73Z" fill="url(#paint36_linear)"/>
<path d="M268.41 22.58V30.66H266.88V21.04H274.36C274.64 21.04 274.91 21.1 275.16 21.21C275.42 21.32 275.65 21.47 275.86 21.66C276.07 21.85 276.24 22.07 276.36 22.32C276.49 22.57 276.55 22.84 276.55 23.1V30.64H275.02V23.97C275.02 23.03 274.55 22.56 273.62 22.56H268.41V22.58Z" fill="url(#paint37_linear)"/>
<path d="M278.52 23.14C278.52 22.86 278.58 22.6 278.71 22.35C278.84 22.1 279.01 21.88 279.22 21.69C279.43 21.5 279.66 21.34 279.92 21.23C280.18 21.12 280.44 21.06 280.72 21.06H286.01C286.29 21.06 286.56 21.12 286.81 21.23C287.07 21.34 287.3 21.5 287.5 21.69C287.7 21.88 287.87 22.1 288 22.35C288.13 22.6 288.19 22.86 288.19 23.14V28.6C288.19 28.87 288.13 29.13 288 29.38C287.87 29.63 287.71 29.85 287.5 30.04C287.29 30.23 287.06 30.38 286.81 30.49C286.56 30.6 286.29 30.66 286.01 30.66H280.72C280.44 30.66 280.17 30.6 279.92 30.49C279.67 30.38 279.43 30.23 279.22 30.04C279.01 29.85 278.84 29.63 278.71 29.38C278.58 29.13 278.52 28.86 278.52 28.6V23.14ZM280.05 27.73C280.05 28.67 280.52 29.14 281.45 29.14H285.23C286.19 29.14 286.66 28.67 286.66 27.73V24.02C286.66 23.07 286.18 22.59 285.23 22.59H281.45C280.51 22.59 280.05 23.07 280.05 24.02V27.73Z" fill="url(#paint38_linear)"/>
<path d="M291.68 30.67V34H290.15V23.12C290.15 22.85 290.21 22.59 290.34 22.34C290.47 22.09 290.64 21.86 290.85 21.68C291.06 21.49 291.29 21.34 291.55 21.23C291.81 21.12 292.07 21.06 292.35 21.06H297.64C297.92 21.06 298.19 21.12 298.44 21.23C298.7 21.34 298.93 21.49 299.13 21.68C299.34 21.87 299.5 22.09 299.63 22.34C299.76 22.59 299.82 22.86 299.82 23.12V28.58C299.82 28.86 299.76 29.12 299.63 29.37C299.5 29.62 299.34 29.84 299.13 30.03C298.92 30.22 298.69 30.38 298.44 30.49C298.19 30.6 297.92 30.66 297.64 30.66H291.68V30.67ZM296.86 29.14C297.82 29.14 298.29 28.66 298.29 27.71V24C298.29 23.06 297.81 22.59 296.86 22.59H293.08C292.14 22.59 291.68 23.06 291.68 24V27.71C291.68 28.66 292.15 29.14 293.08 29.14H296.86Z" fill="url(#paint39_linear)"/>
<path d="M305.13 22.58H301.78V21.05H310V22.58H306.65V30.66H305.12V22.58H305.13Z" fill="url(#paint40_linear)"/>
<path d="M60.2 29.44C60.04 29.88 59.8 30.2 59.5 30.39C59.2 30.58 58.85 30.67 58.45 30.67C58.04 30.67 57.69 30.58 57.39 30.39C57.09 30.2 56.86 29.89 56.7 29.44L52.53 19.47V30.66H50.71V19.71C50.71 19.2 50.89 18.76 51.25 18.4C51.61 18.04 52.05 17.86 52.56 17.86C53.04 17.86 53.42 17.96 53.68 18.16C53.95 18.36 54.14 18.63 54.26 18.96L58.44 28.92L62.62 18.96C62.74 18.63 62.93 18.36 63.19 18.16C63.45 17.96 63.83 17.86 64.33 17.86C64.84 17.86 65.28 18.04 65.64 18.4C66 18.76 66.18 19.2 66.18 19.71V30.67H64.36V19.47L60.2 29.44Z" fill="url(#paint41_linear)"/>
<path d="M77.83 24.42C77.83 24.7 77.77 24.96 77.64 25.21C77.51 25.46 77.35 25.68 77.15 25.87C76.95 26.06 76.72 26.22 76.46 26.33C76.2 26.44 75.93 26.5 75.65 26.5H69.69V27.71C69.69 28.65 70.16 29.12 71.09 29.12H77.83V30.65H70.35C70.07 30.65 69.8 30.59 69.55 30.48C69.29 30.37 69.06 30.22 68.85 30.03C68.64 29.84 68.47 29.62 68.34 29.37C68.21 29.12 68.15 28.85 68.15 28.59V23.13C68.15 22.85 68.21 22.59 68.34 22.34C68.47 22.09 68.64 21.87 68.85 21.68C69.06 21.49 69.29 21.33 69.55 21.22C69.8 21.11 70.07 21.05 70.35 21.05H75.64C75.92 21.05 76.19 21.11 76.45 21.22C76.71 21.33 76.94 21.49 77.14 21.68C77.34 21.87 77.5 22.09 77.63 22.34C77.76 22.59 77.82 22.85 77.82 23.13V24.42H77.83ZM75.09 24.98C75.25 24.98 75.41 24.95 75.56 24.89C75.71 24.83 75.84 24.74 75.95 24.63C76.06 24.52 76.15 24.39 76.21 24.25C76.27 24.11 76.3 23.95 76.3 23.78C76.3 23.62 76.27 23.46 76.21 23.31C76.15 23.16 76.06 23.04 75.95 22.93C75.84 22.82 75.71 22.74 75.56 22.68C75.41 22.62 75.26 22.59 75.09 22.59H71.09C70.15 22.59 69.69 23.07 69.69 24.02V24.99H75.09V24.98Z" fill="url(#paint42_linear)"/>
<path d="M87.03 25.09L90.92 21.05H93.05L88.46 25.82L93.34 30.66H91.2L87.04 26.59V30.66H85.51V26.6L81.35 30.67H79.21L84.09 25.83L79.5 21.06H81.63L85.52 25.1V21.06H87.05V25.1H87.03V25.09Z" fill="url(#paint43_linear)"/>
<path d="M102.18 17.86C102.46 17.86 102.73 17.91 102.98 18.02C103.23 18.13 103.47 18.28 103.68 18.48C103.89 18.68 104.06 18.9 104.19 19.14C104.32 19.39 104.38 19.65 104.38 19.93V28.61C104.38 28.88 104.32 29.14 104.19 29.39C104.06 29.64 103.89 29.86 103.68 30.05C103.47 30.24 103.24 30.39 102.98 30.5C102.72 30.61 102.46 30.67 102.18 30.67H96.89C96.61 30.67 96.34 30.61 96.09 30.5C95.84 30.39 95.6 30.24 95.4 30.05C95.19 29.86 95.03 29.64 94.9 29.39C94.77 29.14 94.71 28.87 94.71 28.61V23.15C94.71 22.87 94.77 22.61 94.9 22.36C95.03 22.11 95.19 21.89 95.4 21.7C95.61 21.51 95.84 21.35 96.09 21.24C96.35 21.13 96.61 21.07 96.89 21.07H102.85V20.8C102.85 19.87 102.38 19.4 101.45 19.4H95.15V17.87H102.18V17.86ZM102.85 24.01C102.85 23.06 102.38 22.58 101.45 22.58H97.67C96.71 22.58 96.24 23.06 96.24 24.01V27.72C96.24 28.66 96.72 29.13 97.67 29.13H101.45C102.39 29.13 102.85 28.66 102.85 27.72V24.01Z" fill="url(#paint44_linear)"/>
<path d="M114.48 21.05H116.01V31.93C116.01 32.2 115.95 32.46 115.82 32.71C115.69 32.96 115.53 33.18 115.32 33.37C115.11 33.56 114.88 33.71 114.63 33.82C114.38 33.93 114.11 33.99 113.83 33.99H106.78V32.46H113.05C114.01 32.46 114.48 31.99 114.48 31.05V30.66H108.53C108.25 30.66 107.98 30.6 107.73 30.49C107.47 30.38 107.24 30.23 107.03 30.04C106.82 29.85 106.65 29.63 106.52 29.38C106.39 29.13 106.33 28.86 106.33 28.6V21.06H107.86V27.73C107.86 28.67 108.33 29.14 109.26 29.14H113.04C114 29.14 114.47 28.67 114.47 27.73V21.06H114.48V21.05Z" fill="url(#paint45_linear)"/>
<path d="M126.12 26.52H119.51V30.67H117.98V21.05H119.51V24.98H126.12V21.05H127.65V30.67H126.12V26.52Z" fill="url(#paint46_linear)"/>
<path d="M136.32 22.58H130.05V21.05H137.1C137.38 21.05 137.65 21.11 137.9 21.22C138.16 21.33 138.39 21.49 138.59 21.68C138.79 21.87 138.96 22.09 139.09 22.34C139.22 22.59 139.28 22.85 139.28 23.13V28.59C139.28 28.86 139.22 29.12 139.09 29.37C138.96 29.62 138.8 29.84 138.59 30.03C138.38 30.22 138.15 30.37 137.9 30.48C137.65 30.59 137.38 30.65 137.1 30.65H131.81C131.53 30.65 131.26 30.59 131.01 30.48C130.75 30.37 130.52 30.22 130.31 30.03C130.1 29.84 129.93 29.62 129.8 29.37C129.67 29.12 129.61 28.85 129.61 28.59V26.33C129.61 26.05 129.67 25.79 129.8 25.54C129.93 25.29 130.1 25.07 130.31 24.87C130.52 24.67 130.75 24.52 131.01 24.42C131.26 24.32 131.53 24.26 131.81 24.26H137.76V24.01C137.76 23.05 137.28 22.58 136.32 22.58ZM132.55 25.8C131.61 25.8 131.15 26.27 131.15 27.2V27.73C131.15 28.67 131.62 29.14 132.55 29.14H136.33C137.29 29.14 137.76 28.67 137.76 27.73V27.2C137.76 26.27 137.28 25.8 136.33 25.8H132.55Z" fill="url(#paint47_linear)"/>
<path d="M142.78 30.67V34H141.25V23.12C141.25 22.85 141.31 22.59 141.44 22.34C141.57 22.09 141.74 21.86 141.95 21.68C142.16 21.49 142.39 21.34 142.65 21.23C142.9 21.12 143.17 21.06 143.45 21.06H148.74C149.02 21.06 149.29 21.12 149.54 21.23C149.8 21.34 150.03 21.49 150.23 21.68C150.44 21.87 150.6 22.09 150.73 22.34C150.86 22.59 150.92 22.86 150.92 23.12V28.58C150.92 28.86 150.86 29.12 150.73 29.37C150.6 29.62 150.44 29.84 150.23 30.03C150.02 30.22 149.79 30.38 149.54 30.49C149.29 30.6 149.02 30.66 148.74 30.66H142.78V30.67ZM147.96 29.14C148.92 29.14 149.39 28.66 149.39 27.71V24C149.39 23.06 148.91 22.59 147.96 22.59H144.18C143.24 22.59 142.78 23.06 142.78 24V27.71C142.78 28.66 143.25 29.14 144.18 29.14H147.96Z" fill="url(#paint48_linear)"/>
<path d="M152.88 23.14C152.88 22.86 152.94 22.6 153.07 22.35C153.2 22.1 153.37 21.88 153.58 21.69C153.79 21.5 154.02 21.34 154.28 21.23C154.53 21.12 154.8 21.06 155.08 21.06H160.37C160.65 21.06 160.92 21.12 161.17 21.23C161.43 21.34 161.66 21.5 161.86 21.69C162.06 21.88 162.23 22.1 162.36 22.35C162.49 22.6 162.55 22.86 162.55 23.14V28.6C162.55 28.87 162.49 29.13 162.36 29.38C162.23 29.63 162.07 29.85 161.86 30.04C161.65 30.23 161.42 30.38 161.17 30.49C160.92 30.6 160.65 30.66 160.37 30.66H155.08C154.8 30.66 154.53 30.6 154.28 30.49C154.02 30.38 153.79 30.23 153.58 30.04C153.37 29.85 153.2 29.63 153.07 29.38C152.94 29.13 152.88 28.86 152.88 28.6V23.14ZM154.41 27.73C154.41 28.67 154.88 29.14 155.81 29.14H159.59C160.55 29.14 161.02 28.67 161.02 27.73V24.02C161.02 23.07 160.54 22.59 159.59 22.59H155.81C154.87 22.59 154.41 23.07 154.41 24.02V27.73Z" fill="url(#paint49_linear)"/>
<path d="M172 17.86C172.28 17.86 172.55 17.91 172.8 18.02C173.06 18.13 173.29 18.28 173.5 18.48C173.71 18.68 173.88 18.9 174 19.14C174.13 19.39 174.19 19.65 174.19 19.93V28.61C174.19 28.88 174.13 29.14 174 29.39C173.87 29.64 173.7 29.86 173.5 30.05C173.29 30.24 173.06 30.39 172.8 30.5C172.55 30.61 172.28 30.67 172 30.67H166.71C166.43 30.67 166.16 30.61 165.91 30.5C165.66 30.39 165.42 30.24 165.22 30.05C165.01 29.86 164.85 29.64 164.72 29.39C164.59 29.14 164.53 28.87 164.53 28.61V23.15C164.53 22.87 164.59 22.61 164.72 22.36C164.85 22.11 165.01 21.89 165.22 21.7C165.43 21.51 165.66 21.35 165.91 21.24C166.16 21.13 166.43 21.07 166.71 21.07H172.67V20.8C172.67 19.87 172.2 19.4 171.27 19.4H164.97V17.87H172V17.86ZM172.66 24.01C172.66 23.06 172.19 22.58 171.26 22.58H167.48C166.52 22.58 166.05 23.06 166.05 24.01V27.72C166.05 28.66 166.53 29.13 167.48 29.13H171.26C172.2 29.13 172.66 28.66 172.66 27.72V24.01Z" fill="url(#paint50_linear)"/>
<path d="M184.3 26.52H177.69V30.67H176.16V21.05H177.69V24.98H184.3V21.05H185.83V30.67H184.3V26.52Z" fill="url(#paint51_linear)"/>
<path d="M189.33 23.72H193.83C194.11 23.72 194.38 23.77 194.64 23.88C194.9 23.99 195.13 24.14 195.33 24.34C195.53 24.54 195.69 24.76 195.82 25C195.95 25.25 196.01 25.51 196.01 25.79V28.59C196.01 28.86 195.95 29.12 195.82 29.37C195.69 29.62 195.53 29.84 195.33 30.03C195.13 30.22 194.9 30.37 194.64 30.48C194.38 30.59 194.11 30.65 193.83 30.65H189.99C189.71 30.65 189.44 30.59 189.19 30.48C188.94 30.37 188.7 30.22 188.49 30.03C188.28 29.84 188.11 29.62 187.98 29.37C187.85 29.12 187.79 28.85 187.79 28.59V21.05H189.32V23.72H189.33ZM189.33 25.25V27.72C189.33 28.66 189.8 29.13 190.73 29.13H193.08C194.02 29.13 194.48 28.66 194.48 27.72V26.65C194.48 25.72 194.01 25.25 193.08 25.25H189.33ZM197.35 21.05H198.88V30.67H197.35V21.05Z" fill="url(#paint52_linear)"/>
<path d="M208.99 29.14V21.06H210.52V30.68H203.04C202.76 30.68 202.49 30.62 202.24 30.51C201.99 30.4 201.75 30.25 201.54 30.06C201.33 29.87 201.16 29.65 201.03 29.4C200.9 29.15 200.84 28.88 200.84 28.62V21.08H202.37V27.75C202.37 28.69 202.84 29.16 203.77 29.16H208.99V29.14ZM205.14 19.63L206.08 17.01H207.87L206.12 19.63H205.14Z" fill="url(#paint53_linear)"/>
<path d="M227.05 22.58H220.78V21.05H227.83C228.11 21.05 228.38 21.11 228.63 21.22C228.89 21.33 229.12 21.49 229.32 21.68C229.52 21.87 229.69 22.09 229.82 22.34C229.95 22.59 230.01 22.85 230.01 23.13V28.59C230.01 28.86 229.95 29.12 229.82 29.37C229.69 29.62 229.53 29.84 229.32 30.03C229.11 30.22 228.88 30.37 228.63 30.48C228.38 30.59 228.11 30.65 227.83 30.65H222.54C222.26 30.65 221.99 30.59 221.74 30.48C221.49 30.37 221.25 30.22 221.04 30.03C220.83 29.84 220.66 29.62 220.53 29.37C220.4 29.12 220.34 28.85 220.34 28.59V26.33C220.34 26.05 220.4 25.79 220.53 25.54C220.66 25.29 220.83 25.07 221.04 24.87C221.25 24.67 221.48 24.52 221.74 24.42C222 24.32 222.26 24.26 222.54 24.26H228.49V24.01C228.48 23.05 228 22.58 227.05 22.58ZM223.27 25.8C222.33 25.8 221.87 26.27 221.87 27.2V27.73C221.87 28.67 222.34 29.14 223.27 29.14H227.05C228.01 29.14 228.48 28.67 228.48 27.73V27.2C228.48 26.27 228 25.8 227.05 25.8H223.27Z" fill="url(#paint54_linear)"/>
<path d="M240.12 26.52H235.08V24.99H240.12V24.02C240.12 23.07 239.64 22.59 238.69 22.59H235.26C234.32 22.59 233.86 23.07 233.86 24.02H232.33V23.15C232.33 22.87 232.39 22.61 232.51 22.36C232.63 22.11 232.8 21.89 233.01 21.7C233.22 21.51 233.45 21.35 233.71 21.24C233.97 21.13 234.23 21.07 234.5 21.07H239.47C239.75 21.07 240.02 21.13 240.27 21.24C240.53 21.35 240.76 21.51 240.96 21.7C241.16 21.89 241.33 22.11 241.46 22.36C241.59 22.61 241.65 22.87 241.65 23.15V28.61C241.65 28.88 241.59 29.14 241.46 29.39C241.33 29.64 241.17 29.86 240.96 30.05C240.75 30.24 240.52 30.39 240.27 30.5C240.02 30.61 239.75 30.67 239.47 30.67H234.18C233.9 30.67 233.63 30.61 233.38 30.5C233.13 30.39 232.89 30.24 232.68 30.05C232.47 29.86 232.3 29.64 232.17 29.39C232.04 29.14 231.98 28.87 231.98 28.61V27.74H233.51C233.51 28.68 233.98 29.15 234.91 29.15H238.69C239.65 29.15 240.12 28.68 240.12 27.74V26.52Z" fill="url(#paint55_linear)"/>
<path d="M245.13 30.67V34H243.6V23.12C243.6 22.85 243.66 22.59 243.79 22.34C243.92 22.09 244.09 21.86 244.3 21.68C244.51 21.49 244.74 21.34 245 21.23C245.26 21.12 245.52 21.06 245.8 21.06H251.09C251.37 21.06 251.64 21.12 251.89 21.23C252.15 21.34 252.38 21.49 252.58 21.68C252.79 21.87 252.95 22.09 253.08 22.34C253.21 22.59 253.27 22.86 253.27 23.12V28.58C253.27 28.86 253.21 29.12 253.08 29.37C252.95 29.62 252.79 29.84 252.58 30.03C252.37 30.22 252.14 30.38 251.89 30.49C251.64 30.6 251.37 30.66 251.09 30.66H245.13V30.67ZM250.32 29.14C251.28 29.14 251.75 28.66 251.75 27.71V24C251.75 23.06 251.27 22.59 250.32 22.59H246.54C245.6 22.59 245.14 23.06 245.14 24V27.71C245.14 28.66 245.61 29.14 246.54 29.14H250.32Z" fill="url(#paint56_linear)"/>
<path d="M255.24 23.14C255.24 22.86 255.3 22.6 255.43 22.35C255.56 22.1 255.73 21.88 255.94 21.69C256.15 21.5 256.38 21.34 256.64 21.23C256.9 21.12 257.16 21.06 257.44 21.06H262.73C263.01 21.06 263.28 21.12 263.53 21.23C263.79 21.34 264.02 21.5 264.22 21.69C264.42 21.88 264.59 22.1 264.72 22.35C264.85 22.6 264.91 22.86 264.91 23.14V28.6C264.91 28.87 264.85 29.13 264.72 29.38C264.59 29.63 264.43 29.85 264.22 30.04C264.01 30.23 263.78 30.38 263.53 30.49C263.28 30.6 263.01 30.66 262.73 30.66H257.44C257.16 30.66 256.89 30.6 256.64 30.49C256.39 30.38 256.15 30.23 255.94 30.04C255.73 29.85 255.56 29.63 255.43 29.38C255.3 29.13 255.24 28.86 255.24 28.6V23.14ZM256.77 27.73C256.77 28.67 257.24 29.14 258.17 29.14H261.95C262.91 29.14 263.38 28.67 263.38 27.73V24.02C263.38 23.07 262.9 22.59 261.95 22.59H258.17C257.23 22.59 256.77 23.07 256.77 24.02V27.73Z" fill="url(#paint57_linear)"/>
<path d="M268.41 22.58V30.66H266.88V21.04H274.36C274.64 21.04 274.91 21.1 275.16 21.21C275.42 21.32 275.65 21.47 275.86 21.66C276.07 21.85 276.24 22.07 276.36 22.32C276.49 22.57 276.55 22.84 276.55 23.1V30.64H275.02V23.97C275.02 23.03 274.55 22.56 273.62 22.56H268.41V22.58Z" fill="url(#paint58_linear)"/>
<path d="M278.52 23.14C278.52 22.86 278.58 22.6 278.71 22.35C278.84 22.1 279.01 21.88 279.22 21.69C279.43 21.5 279.66 21.34 279.92 21.23C280.18 21.12 280.44 21.06 280.72 21.06H286.01C286.29 21.06 286.56 21.12 286.81 21.23C287.07 21.34 287.3 21.5 287.5 21.69C287.7 21.88 287.87 22.1 288 22.35C288.13 22.6 288.19 22.86 288.19 23.14V28.6C288.19 28.87 288.13 29.13 288 29.38C287.87 29.63 287.71 29.85 287.5 30.04C287.29 30.23 287.06 30.38 286.81 30.49C286.56 30.6 286.29 30.66 286.01 30.66H280.72C280.44 30.66 280.17 30.6 279.92 30.49C279.67 30.38 279.43 30.23 279.22 30.04C279.01 29.85 278.84 29.63 278.71 29.38C278.58 29.13 278.52 28.86 278.52 28.6V23.14ZM280.05 27.73C280.05 28.67 280.52 29.14 281.45 29.14H285.23C286.19 29.14 286.66 28.67 286.66 27.73V24.02C286.66 23.07 286.18 22.59 285.23 22.59H281.45C280.51 22.59 280.05 23.07 280.05 24.02V27.73Z" fill="url(#paint59_linear)"/>
<path d="M291.68 30.67V34H290.15V23.12C290.15 22.85 290.21 22.59 290.34 22.34C290.47 22.09 290.64 21.86 290.85 21.68C291.06 21.49 291.29 21.34 291.55 21.23C291.81 21.12 292.07 21.06 292.35 21.06H297.64C297.92 21.06 298.19 21.12 298.44 21.23C298.7 21.34 298.93 21.49 299.13 21.68C299.34 21.87 299.5 22.09 299.63 22.34C299.76 22.59 299.82 22.86 299.82 23.12V28.58C299.82 28.86 299.76 29.12 299.63 29.37C299.5 29.62 299.34 29.84 299.13 30.03C298.92 30.22 298.69 30.38 298.44 30.49C298.19 30.6 297.92 30.66 297.64 30.66H291.68V30.67ZM296.86 29.14C297.82 29.14 298.29 28.66 298.29 27.71V24C298.29 23.06 297.81 22.59 296.86 22.59H293.08C292.14 22.59 291.68 23.06 291.68 24V27.71C291.68 28.66 292.15 29.14 293.08 29.14H296.86Z" fill="url(#paint60_linear)"/>
<path d="M305.13 22.58H301.78V21.05H310V22.58H306.65V30.66H305.12V22.58H305.13Z" fill="url(#paint61_linear)"/>
<path d="M60.2 29.44C60.04 29.88 59.8 30.2 59.5 30.39C59.2 30.58 58.85 30.67 58.45 30.67C58.04 30.67 57.69 30.58 57.39 30.39C57.09 30.2 56.86 29.89 56.7 29.44L52.53 19.47V30.66H50.71V19.71C50.71 19.2 50.89 18.76 51.25 18.4C51.61 18.04 52.05 17.86 52.56 17.86C53.04 17.86 53.42 17.96 53.68 18.16C53.95 18.36 54.14 18.63 54.26 18.96L58.44 28.92L62.62 18.96C62.74 18.63 62.93 18.36 63.19 18.16C63.45 17.96 63.83 17.86 64.33 17.86C64.84 17.86 65.28 18.04 65.64 18.4C66 18.76 66.18 19.2 66.18 19.71V30.67H64.36V19.47L60.2 29.44Z" fill="url(#paint62_linear)"/>
<path d="M77.83 24.42C77.83 24.7 77.77 24.96 77.64 25.21C77.51 25.46 77.35 25.68 77.15 25.87C76.95 26.06 76.72 26.22 76.46 26.33C76.2 26.44 75.93 26.5 75.65 26.5H69.69V27.71C69.69 28.65 70.16 29.12 71.09 29.12H77.83V30.65H70.35C70.07 30.65 69.8 30.59 69.55 30.48C69.29 30.37 69.06 30.22 68.85 30.03C68.64 29.84 68.47 29.62 68.34 29.37C68.21 29.12 68.15 28.85 68.15 28.59V23.13C68.15 22.85 68.21 22.59 68.34 22.34C68.47 22.09 68.64 21.87 68.85 21.68C69.06 21.49 69.29 21.33 69.55 21.22C69.8 21.11 70.07 21.05 70.35 21.05H75.64C75.92 21.05 76.19 21.11 76.45 21.22C76.71 21.33 76.94 21.49 77.14 21.68C77.34 21.87 77.5 22.09 77.63 22.34C77.76 22.59 77.82 22.85 77.82 23.13V24.42H77.83ZM75.09 24.98C75.25 24.98 75.41 24.95 75.56 24.89C75.71 24.83 75.84 24.74 75.95 24.63C76.06 24.52 76.15 24.39 76.21 24.25C76.27 24.11 76.3 23.95 76.3 23.78C76.3 23.62 76.27 23.46 76.21 23.31C76.15 23.16 76.06 23.04 75.95 22.93C75.84 22.82 75.71 22.74 75.56 22.68C75.41 22.62 75.26 22.59 75.09 22.59H71.09C70.15 22.59 69.69 23.07 69.69 24.02V24.99H75.09V24.98Z" fill="url(#paint63_linear)"/>
<path d="M87.03 25.09L90.92 21.05H93.05L88.46 25.82L93.34 30.66H91.2L87.04 26.59V30.66H85.51V26.6L81.35 30.67H79.21L84.09 25.83L79.5 21.06H81.63L85.52 25.1V21.06H87.05V25.1H87.03V25.09Z" fill="url(#paint64_linear)"/>
<path d="M102.18 17.86C102.46 17.86 102.73 17.91 102.98 18.02C103.23 18.13 103.47 18.28 103.68 18.48C103.89 18.68 104.06 18.9 104.19 19.14C104.32 19.39 104.38 19.65 104.38 19.93V28.61C104.38 28.88 104.32 29.14 104.19 29.39C104.06 29.64 103.89 29.86 103.68 30.05C103.47 30.24 103.24 30.39 102.98 30.5C102.72 30.61 102.46 30.67 102.18 30.67H96.89C96.61 30.67 96.34 30.61 96.09 30.5C95.84 30.39 95.6 30.24 95.4 30.05C95.19 29.86 95.03 29.64 94.9 29.39C94.77 29.14 94.71 28.87 94.71 28.61V23.15C94.71 22.87 94.77 22.61 94.9 22.36C95.03 22.11 95.19 21.89 95.4 21.7C95.61 21.51 95.84 21.35 96.09 21.24C96.35 21.13 96.61 21.07 96.89 21.07H102.85V20.8C102.85 19.87 102.38 19.4 101.45 19.4H95.15V17.87H102.18V17.86ZM102.85 24.01C102.85 23.06 102.38 22.58 101.45 22.58H97.67C96.71 22.58 96.24 23.06 96.24 24.01V27.72C96.24 28.66 96.72 29.13 97.67 29.13H101.45C102.39 29.13 102.85 28.66 102.85 27.72V24.01Z" fill="url(#paint65_linear)"/>
<path d="M114.48 21.05H116.01V31.93C116.01 32.2 115.95 32.46 115.82 32.71C115.69 32.96 115.53 33.18 115.32 33.37C115.11 33.56 114.88 33.71 114.63 33.82C114.38 33.93 114.11 33.99 113.83 33.99H106.78V32.46H113.05C114.01 32.46 114.48 31.99 114.48 31.05V30.66H108.53C108.25 30.66 107.98 30.6 107.73 30.49C107.47 30.38 107.24 30.23 107.03 30.04C106.82 29.85 106.65 29.63 106.52 29.38C106.39 29.13 106.33 28.86 106.33 28.6V21.06H107.86V27.73C107.86 28.67 108.33 29.14 109.26 29.14H113.04C114 29.14 114.47 28.67 114.47 27.73V21.06H114.48V21.05Z" fill="url(#paint66_linear)"/>
<path d="M126.12 26.52H119.51V30.67H117.98V21.05H119.51V24.98H126.12V21.05H127.65V30.67H126.12V26.52Z" fill="url(#paint67_linear)"/>
<path d="M136.32 22.58H130.05V21.05H137.1C137.38 21.05 137.65 21.11 137.9 21.22C138.16 21.33 138.39 21.49 138.59 21.68C138.79 21.87 138.96 22.09 139.09 22.34C139.22 22.59 139.28 22.85 139.28 23.13V28.59C139.28 28.86 139.22 29.12 139.09 29.37C138.96 29.62 138.8 29.84 138.59 30.03C138.38 30.22 138.15 30.37 137.9 30.48C137.65 30.59 137.38 30.65 137.1 30.65H131.81C131.53 30.65 131.26 30.59 131.01 30.48C130.75 30.37 130.52 30.22 130.31 30.03C130.1 29.84 129.93 29.62 129.8 29.37C129.67 29.12 129.61 28.85 129.61 28.59V26.33C129.61 26.05 129.67 25.79 129.8 25.54C129.93 25.29 130.1 25.07 130.31 24.87C130.52 24.67 130.75 24.52 131.01 24.42C131.26 24.32 131.53 24.26 131.81 24.26H137.76V24.01C137.76 23.05 137.28 22.58 136.32 22.58ZM132.55 25.8C131.61 25.8 131.15 26.27 131.15 27.2V27.73C131.15 28.67 131.62 29.14 132.55 29.14H136.33C137.29 29.14 137.76 28.67 137.76 27.73V27.2C137.76 26.27 137.28 25.8 136.33 25.8H132.55Z" fill="url(#paint68_linear)"/>
<path d="M142.78 30.67V34H141.25V23.12C141.25 22.85 141.31 22.59 141.44 22.34C141.57 22.09 141.74 21.86 141.95 21.68C142.16 21.49 142.39 21.34 142.65 21.23C142.9 21.12 143.17 21.06 143.45 21.06H148.74C149.02 21.06 149.29 21.12 149.54 21.23C149.8 21.34 150.03 21.49 150.23 21.68C150.44 21.87 150.6 22.09 150.73 22.34C150.86 22.59 150.92 22.86 150.92 23.12V28.58C150.92 28.86 150.86 29.12 150.73 29.37C150.6 29.62 150.44 29.84 150.23 30.03C150.02 30.22 149.79 30.38 149.54 30.49C149.29 30.6 149.02 30.66 148.74 30.66H142.78V30.67ZM147.96 29.14C148.92 29.14 149.39 28.66 149.39 27.71V24C149.39 23.06 148.91 22.59 147.96 22.59H144.18C143.24 22.59 142.78 23.06 142.78 24V27.71C142.78 28.66 143.25 29.14 144.18 29.14H147.96Z" fill="url(#paint69_linear)"/>
<path d="M152.88 23.14C152.88 22.86 152.94 22.6 153.07 22.35C153.2 22.1 153.37 21.88 153.58 21.69C153.79 21.5 154.02 21.34 154.28 21.23C154.53 21.12 154.8 21.06 155.08 21.06H160.37C160.65 21.06 160.92 21.12 161.17 21.23C161.43 21.34 161.66 21.5 161.86 21.69C162.06 21.88 162.23 22.1 162.36 22.35C162.49 22.6 162.55 22.86 162.55 23.14V28.6C162.55 28.87 162.49 29.13 162.36 29.38C162.23 29.63 162.07 29.85 161.86 30.04C161.65 30.23 161.42 30.38 161.17 30.49C160.92 30.6 160.65 30.66 160.37 30.66H155.08C154.8 30.66 154.53 30.6 154.28 30.49C154.02 30.38 153.79 30.23 153.58 30.04C153.37 29.85 153.2 29.63 153.07 29.38C152.94 29.13 152.88 28.86 152.88 28.6V23.14ZM154.41 27.73C154.41 28.67 154.88 29.14 155.81 29.14H159.59C160.55 29.14 161.02 28.67 161.02 27.73V24.02C161.02 23.07 160.54 22.59 159.59 22.59H155.81C154.87 22.59 154.41 23.07 154.41 24.02V27.73Z" fill="url(#paint70_linear)"/>
<path d="M172 17.86C172.28 17.86 172.55 17.91 172.8 18.02C173.06 18.13 173.29 18.28 173.5 18.48C173.71 18.68 173.88 18.9 174 19.14C174.13 19.39 174.19 19.65 174.19 19.93V28.61C174.19 28.88 174.13 29.14 174 29.39C173.87 29.64 173.7 29.86 173.5 30.05C173.29 30.24 173.06 30.39 172.8 30.5C172.55 30.61 172.28 30.67 172 30.67H166.71C166.43 30.67 166.16 30.61 165.91 30.5C165.66 30.39 165.42 30.24 165.22 30.05C165.01 29.86 164.85 29.64 164.72 29.39C164.59 29.14 164.53 28.87 164.53 28.61V23.15C164.53 22.87 164.59 22.61 164.72 22.36C164.85 22.11 165.01 21.89 165.22 21.7C165.43 21.51 165.66 21.35 165.91 21.24C166.16 21.13 166.43 21.07 166.71 21.07H172.67V20.8C172.67 19.87 172.2 19.4 171.27 19.4H164.97V17.87H172V17.86ZM172.66 24.01C172.66 23.06 172.19 22.58 171.26 22.58H167.48C166.52 22.58 166.05 23.06 166.05 24.01V27.72C166.05 28.66 166.53 29.13 167.48 29.13H171.26C172.2 29.13 172.66 28.66 172.66 27.72V24.01Z" fill="url(#paint71_linear)"/>
<path d="M184.3 26.52H177.69V30.67H176.16V21.05H177.69V24.98H184.3V21.05H185.83V30.67H184.3V26.52Z" fill="url(#paint72_linear)"/>
<path d="M189.33 23.72H193.83C194.11 23.72 194.38 23.77 194.64 23.88C194.9 23.99 195.13 24.14 195.33 24.34C195.53 24.54 195.69 24.76 195.82 25C195.95 25.25 196.01 25.51 196.01 25.79V28.59C196.01 28.86 195.95 29.12 195.82 29.37C195.69 29.62 195.53 29.84 195.33 30.03C195.13 30.22 194.9 30.37 194.64 30.48C194.38 30.59 194.11 30.65 193.83 30.65H189.99C189.71 30.65 189.44 30.59 189.19 30.48C188.94 30.37 188.7 30.22 188.49 30.03C188.28 29.84 188.11 29.62 187.98 29.37C187.85 29.12 187.79 28.85 187.79 28.59V21.05H189.32V23.72H189.33ZM189.33 25.25V27.72C189.33 28.66 189.8 29.13 190.73 29.13H193.08C194.02 29.13 194.48 28.66 194.48 27.72V26.65C194.48 25.72 194.01 25.25 193.08 25.25H189.33ZM197.35 21.05H198.88V30.67H197.35V21.05Z" fill="url(#paint73_linear)"/>
<path d="M208.99 29.14V21.06H210.52V30.68H203.04C202.76 30.68 202.49 30.62 202.24 30.51C201.99 30.4 201.75 30.25 201.54 30.06C201.33 29.87 201.16 29.65 201.03 29.4C200.9 29.15 200.84 28.88 200.84 28.62V21.08H202.37V27.75C202.37 28.69 202.84 29.16 203.77 29.16H208.99V29.14ZM205.14 19.63L206.08 17.01H207.87L206.12 19.63H205.14Z" fill="url(#paint74_linear)"/>
<path d="M227.05 22.58H220.78V21.05H227.83C228.11 21.05 228.38 21.11 228.63 21.22C228.89 21.33 229.12 21.49 229.32 21.68C229.52 21.87 229.69 22.09 229.82 22.34C229.95 22.59 230.01 22.85 230.01 23.13V28.59C230.01 28.86 229.95 29.12 229.82 29.37C229.69 29.62 229.53 29.84 229.32 30.03C229.11 30.22 228.88 30.37 228.63 30.48C228.38 30.59 228.11 30.65 227.83 30.65H222.54C222.26 30.65 221.99 30.59 221.74 30.48C221.49 30.37 221.25 30.22 221.04 30.03C220.83 29.84 220.66 29.62 220.53 29.37C220.4 29.12 220.34 28.85 220.34 28.59V26.33C220.34 26.05 220.4 25.79 220.53 25.54C220.66 25.29 220.83 25.07 221.04 24.87C221.25 24.67 221.48 24.52 221.74 24.42C222 24.32 222.26 24.26 222.54 24.26H228.49V24.01C228.48 23.05 228 22.58 227.05 22.58ZM223.27 25.8C222.33 25.8 221.87 26.27 221.87 27.2V27.73C221.87 28.67 222.34 29.14 223.27 29.14H227.05C228.01 29.14 228.48 28.67 228.48 27.73V27.2C228.48 26.27 228 25.8 227.05 25.8H223.27Z" fill="url(#paint75_linear)"/>
<path d="M240.12 26.52H235.08V24.99H240.12V24.02C240.12 23.07 239.64 22.59 238.69 22.59H235.26C234.32 22.59 233.86 23.07 233.86 24.02H232.33V23.15C232.33 22.87 232.39 22.61 232.51 22.36C232.63 22.11 232.8 21.89 233.01 21.7C233.22 21.51 233.45 21.35 233.71 21.24C233.97 21.13 234.23 21.07 234.5 21.07H239.47C239.75 21.07 240.02 21.13 240.27 21.24C240.53 21.35 240.76 21.51 240.96 21.7C241.16 21.89 241.33 22.11 241.46 22.36C241.59 22.61 241.65 22.87 241.65 23.15V28.61C241.65 28.88 241.59 29.14 241.46 29.39C241.33 29.64 241.17 29.86 240.96 30.05C240.75 30.24 240.52 30.39 240.27 30.5C240.02 30.61 239.75 30.67 239.47 30.67H234.18C233.9 30.67 233.63 30.61 233.38 30.5C233.13 30.39 232.89 30.24 232.68 30.05C232.47 29.86 232.3 29.64 232.17 29.39C232.04 29.14 231.98 28.87 231.98 28.61V27.74H233.51C233.51 28.68 233.98 29.15 234.91 29.15H238.69C239.65 29.15 240.12 28.68 240.12 27.74V26.52Z" fill="url(#paint76_linear)"/>
<path d="M245.13 30.67V34H243.6V23.12C243.6 22.85 243.66 22.59 243.79 22.34C243.92 22.09 244.09 21.86 244.3 21.68C244.51 21.49 244.74 21.34 245 21.23C245.26 21.12 245.52 21.06 245.8 21.06H251.09C251.37 21.06 251.64 21.12 251.89 21.23C252.15 21.34 252.38 21.49 252.58 21.68C252.79 21.87 252.95 22.09 253.08 22.34C253.21 22.59 253.27 22.86 253.27 23.12V28.58C253.27 28.86 253.21 29.12 253.08 29.37C252.95 29.62 252.79 29.84 252.58 30.03C252.37 30.22 252.14 30.38 251.89 30.49C251.64 30.6 251.37 30.66 251.09 30.66H245.13V30.67ZM250.32 29.14C251.28 29.14 251.75 28.66 251.75 27.71V24C251.75 23.06 251.27 22.59 250.32 22.59H246.54C245.6 22.59 245.14 23.06 245.14 24V27.71C245.14 28.66 245.61 29.14 246.54 29.14H250.32Z" fill="url(#paint77_linear)"/>
<path d="M255.24 23.14C255.24 22.86 255.3 22.6 255.43 22.35C255.56 22.1 255.73 21.88 255.94 21.69C256.15 21.5 256.38 21.34 256.64 21.23C256.9 21.12 257.16 21.06 257.44 21.06H262.73C263.01 21.06 263.28 21.12 263.53 21.23C263.79 21.34 264.02 21.5 264.22 21.69C264.42 21.88 264.59 22.1 264.72 22.35C264.85 22.6 264.91 22.86 264.91 23.14V28.6C264.91 28.87 264.85 29.13 264.72 29.38C264.59 29.63 264.43 29.85 264.22 30.04C264.01 30.23 263.78 30.38 263.53 30.49C263.28 30.6 263.01 30.66 262.73 30.66H257.44C257.16 30.66 256.89 30.6 256.64 30.49C256.39 30.38 256.15 30.23 255.94 30.04C255.73 29.85 255.56 29.63 255.43 29.38C255.3 29.13 255.24 28.86 255.24 28.6V23.14ZM256.77 27.73C256.77 28.67 257.24 29.14 258.17 29.14H261.95C262.91 29.14 263.38 28.67 263.38 27.73V24.02C263.38 23.07 262.9 22.59 261.95 22.59H258.17C257.23 22.59 256.77 23.07 256.77 24.02V27.73Z" fill="url(#paint78_linear)"/>
<path d="M268.41 22.58V30.66H266.88V21.04H274.36C274.64 21.04 274.91 21.1 275.16 21.21C275.42 21.32 275.65 21.47 275.86 21.66C276.07 21.85 276.24 22.07 276.36 22.32C276.49 22.57 276.55 22.84 276.55 23.1V30.64H275.02V23.97C275.02 23.03 274.55 22.56 273.62 22.56H268.41V22.58Z" fill="url(#paint79_linear)"/>
<path d="M278.52 23.14C278.52 22.86 278.58 22.6 278.71 22.35C278.84 22.1 279.01 21.88 279.22 21.69C279.43 21.5 279.66 21.34 279.92 21.23C280.18 21.12 280.44 21.06 280.72 21.06H286.01C286.29 21.06 286.56 21.12 286.81 21.23C287.07 21.34 287.3 21.5 287.5 21.69C287.7 21.88 287.87 22.1 288 22.35C288.13 22.6 288.19 22.86 288.19 23.14V28.6C288.19 28.87 288.13 29.13 288 29.38C287.87 29.63 287.71 29.85 287.5 30.04C287.29 30.23 287.06 30.38 286.81 30.49C286.56 30.6 286.29 30.66 286.01 30.66H280.72C280.44 30.66 280.17 30.6 279.92 30.49C279.67 30.38 279.43 30.23 279.22 30.04C279.01 29.85 278.84 29.63 278.71 29.38C278.58 29.13 278.52 28.86 278.52 28.6V23.14ZM280.05 27.73C280.05 28.67 280.52 29.14 281.45 29.14H285.23C286.19 29.14 286.66 28.67 286.66 27.73V24.02C286.66 23.07 286.18 22.59 285.23 22.59H281.45C280.51 22.59 280.05 23.07 280.05 24.02V27.73Z" fill="url(#paint80_linear)"/>
<path d="M291.68 30.67V34H290.15V23.12C290.15 22.85 290.21 22.59 290.34 22.34C290.47 22.09 290.64 21.86 290.85 21.68C291.06 21.49 291.29 21.34 291.55 21.23C291.81 21.12 292.07 21.06 292.35 21.06H297.64C297.92 21.06 298.19 21.12 298.44 21.23C298.7 21.34 298.93 21.49 299.13 21.68C299.34 21.87 299.5 22.09 299.63 22.34C299.76 22.59 299.82 22.86 299.82 23.12V28.58C299.82 28.86 299.76 29.12 299.63 29.37C299.5 29.62 299.34 29.84 299.13 30.03C298.92 30.22 298.69 30.38 298.44 30.49C298.19 30.6 297.92 30.66 297.64 30.66H291.68V30.67ZM296.86 29.14C297.82 29.14 298.29 28.66 298.29 27.71V24C298.29 23.06 297.81 22.59 296.86 22.59H293.08C292.14 22.59 291.68 23.06 291.68 24V27.71C291.68 28.66 292.15 29.14 293.08 29.14H296.86Z" fill="url(#paint81_linear)"/>
<path d="M305.13 22.58H301.78V21.05H310V22.58H306.65V30.66H305.12V22.58H305.13Z" fill="url(#paint82_linear)"/>
</g>
<defs>
<linearGradient id="paint0_linear" x1="1.43329e-05" y1="15.5091" x2="351.401" y2="15.5091" gradientUnits="userSpaceOnUse">
<stop stop-color="#00BBF0"/>
<stop offset="0.1" stop-color="#233C96"/>
<stop offset="0.6" stop-color="#00204A"/>
</linearGradient>
<linearGradient id="paint1_linear" x1="-0.00176748" y1="15.9612" x2="351.399" y2="15.9612" gradientUnits="userSpaceOnUse">
<stop stop-color="#00BBF0"/>
<stop offset="0.1" stop-color="#233C96"/>
<stop offset="0.6" stop-color="#00204A"/>
</linearGradient>
<linearGradient id="paint2_linear" x1="-3.43153" y1="6.4037" x2="316.581" y2="6.4037" gradientUnits="userSpaceOnUse">
<stop stop-color="#00BBF0"/>
<stop offset="0.1" stop-color="#233C96"/>
<stop offset="0.6" stop-color="#00204A"/>
</linearGradient>
<linearGradient id="paint3_linear" x1="-3.43153" y1="6.4037" x2="316.581" y2="6.4037" gradientUnits="userSpaceOnUse">
<stop stop-color="#00BBF0"/>
<stop offset="0.1" stop-color="#233C96"/>
<stop offset="0.6" stop-color="#00204A"/>
</linearGradient>
<linearGradient id="paint4_linear" x1="-3.43159" y1="6.4037" x2="316.581" y2="6.4037" gradientUnits="userSpaceOnUse">
<stop stop-color="#00BBF0"/>
<stop offset="0.1" stop-color="#233C96"/>
<stop offset="0.6" stop-color="#00204A"/>
</linearGradient>
<linearGradient id="paint5_linear" x1="-3.4315" y1="6.4037" x2="316.581" y2="6.4037" gradientUnits="userSpaceOnUse">
<stop stop-color="#00BBF0"/>
<stop offset="0.1" stop-color="#233C96"/>
<stop offset="0.6" stop-color="#00204A"/>
</linearGradient>
<linearGradient id="paint6_linear" x1="-3.43146" y1="6.4037" x2="316.581" y2="6.4037" gradientUnits="userSpaceOnUse">
<stop stop-color="#00BBF0"/>
<stop offset="0.1" stop-color="#233C96"/>
<stop offset="0.6" stop-color="#00204A"/>
</linearGradient>
<linearGradient id="paint7_linear" x1="-3.43167" y1="6.4037" x2="316.581" y2="6.4037" gradientUnits="userSpaceOnUse">
<stop stop-color="#00BBF0"/>
<stop offset="0.1" stop-color="#233C96"/>
<stop offset="0.6" stop-color="#00204A"/>
</linearGradient>
<linearGradient id="paint8_linear" x1="-3.43153" y1="6.4037" x2="316.581" y2="6.4037" gradientUnits="userSpaceOnUse">
<stop stop-color="#00BBF0"/>
<stop offset="0.1" stop-color="#233C96"/>
<stop offset="0.6" stop-color="#00204A"/>
</linearGradient>
<linearGradient id="paint9_linear" x1="-3.43153" y1="6.4037" x2="316.581" y2="6.4037" gradientUnits="userSpaceOnUse">
<stop stop-color="#00BBF0"/>
<stop offset="0.1" stop-color="#233C96"/>
<stop offset="0.6" stop-color="#00204A"/>
</linearGradient>
<linearGradient id="paint10_linear" x1="-3.43159" y1="6.4037" x2="316.581" y2="6.4037" gradientUnits="userSpaceOnUse">
<stop stop-color="#00BBF0"/>
<stop offset="0.1" stop-color="#233C96"/>
<stop offset="0.6" stop-color="#00204A"/>
</linearGradient>
<linearGradient id="paint11_linear" x1="-3.4315" y1="6.4037" x2="316.581" y2="6.4037" gradientUnits="userSpaceOnUse">
<stop stop-color="#00BBF0"/>
<stop offset="0.1" stop-color="#233C96"/>
<stop offset="0.6" stop-color="#00204A"/>
</linearGradient>
<linearGradient id="paint12_linear" x1="-3.43146" y1="6.4037" x2="316.581" y2="6.4037" gradientUnits="userSpaceOnUse">
<stop stop-color="#00BBF0"/>
<stop offset="0.1" stop-color="#233C96"/>
<stop offset="0.6" stop-color="#00204A"/>
</linearGradient>
<linearGradient id="paint13_linear" x1="-3.43167" y1="6.4037" x2="316.581" y2="6.4037" gradientUnits="userSpaceOnUse">
<stop stop-color="#00BBF0"/>
<stop offset="0.1" stop-color="#233C96"/>
<stop offset="0.6" stop-color="#00204A"/>
</linearGradient>
<linearGradient id="paint14_linear" x1="-3.43153" y1="6.4037" x2="316.581" y2="6.4037" gradientUnits="userSpaceOnUse">
<stop stop-color="#00BBF0"/>
<stop offset="0.1" stop-color="#233C96"/>
<stop offset="0.6" stop-color="#00204A"/>
</linearGradient>
<linearGradient id="paint15_linear" x1="-3.43153" y1="6.4037" x2="316.581" y2="6.4037" gradientUnits="userSpaceOnUse">
<stop stop-color="#00BBF0"/>
<stop offset="0.1" stop-color="#233C96"/>
<stop offset="0.6" stop-color="#00204A"/>
</linearGradient>
<linearGradient id="paint16_linear" x1="-3.43159" y1="6.4037" x2="316.581" y2="6.4037" gradientUnits="userSpaceOnUse">
<stop stop-color="#00BBF0"/>
<stop offset="0.1" stop-color="#233C96"/>
<stop offset="0.6" stop-color="#00204A"/>
</linearGradient>
<linearGradient id="paint17_linear" x1="-3.4315" y1="6.4037" x2="316.581" y2="6.4037" gradientUnits="userSpaceOnUse">
<stop stop-color="#00BBF0"/>
<stop offset="0.1" stop-color="#233C96"/>
<stop offset="0.6" stop-color="#00204A"/>
</linearGradient>
<linearGradient id="paint18_linear" x1="-3.43146" y1="6.4037" x2="316.581" y2="6.4037" gradientUnits="userSpaceOnUse">
<stop stop-color="#00BBF0"/>
<stop offset="0.1" stop-color="#233C96"/>
<stop offset="0.6" stop-color="#00204A"/>
</linearGradient>
<linearGradient id="paint19_linear" x1="-3.43167" y1="6.4037" x2="316.581" y2="6.4037" gradientUnits="userSpaceOnUse">
<stop stop-color="#00BBF0"/>
<stop offset="0.1" stop-color="#233C96"/>
<stop offset="0.6" stop-color="#00204A"/>
</linearGradient>
<linearGradient id="paint20_linear" x1="-2.79131" y1="24.2638" x2="310.011" y2="24.2638" gradientUnits="userSpaceOnUse">
<stop stop-color="#00BBF0"/>
<stop offset="0.1" stop-color="#233C96"/>
<stop offset="0.6" stop-color="#00204A"/>
</linearGradient>
<linearGradient id="paint21_linear" x1="-2.79121" y1="25.8552" x2="310.011" y2="25.8552" gradientUnits="userSpaceOnUse">
<stop stop-color="#00BBF0"/>
<stop offset="0.1" stop-color="#233C96"/>
<stop offset="0.6" stop-color="#00204A"/>
</linearGradient>
<linearGradient id="paint22_linear" x1="-2.79119" y1="25.8602" x2="310.011" y2="25.8602" gradientUnits="userSpaceOnUse">
<stop stop-color="#00BBF0"/>
<stop offset="0.1" stop-color="#233C96"/>
<stop offset="0.6" stop-color="#00204A"/>
</linearGradient>
<linearGradient id="paint23_linear" x1="-2.79129" y1="24.2638" x2="310.011" y2="24.2638" gradientUnits="userSpaceOnUse">
<stop stop-color="#00BBF0"/>
<stop offset="0.1" stop-color="#233C96"/>
<stop offset="0.6" stop-color="#00204A"/>
</linearGradient>
<linearGradient id="paint24_linear" x1="-2.79128" y1="27.5212" x2="310.011" y2="27.5212" gradientUnits="userSpaceOnUse">
<stop stop-color="#00BBF0"/>
<stop offset="0.1" stop-color="#233C96"/>
<stop offset="0.6" stop-color="#00204A"/>
</linearGradient>
<linearGradient id="paint25_linear" x1="-2.7912" y1="25.8602" x2="310.011" y2="25.8602" gradientUnits="userSpaceOnUse">
<stop stop-color="#00BBF0"/>
<stop offset="0.1" stop-color="#233C96"/>
<stop offset="0.6" stop-color="#00204A"/>
</linearGradient>
<linearGradient id="paint26_linear" x1="-2.79119" y1="25.8552" x2="310.011" y2="25.8552" gradientUnits="userSpaceOnUse">
<stop stop-color="#00BBF0"/>
<stop offset="0.1" stop-color="#233C96"/>
<stop offset="0.6" stop-color="#00204A"/>
</linearGradient>
<linearGradient id="paint27_linear" x1="-2.79128" y1="27.5312" x2="310.011" y2="27.5312" gradientUnits="userSpaceOnUse">
<stop stop-color="#00BBF0"/>
<stop offset="0.1" stop-color="#233C96"/>
<stop offset="0.6" stop-color="#00204A"/>
</linearGradient>
<linearGradient id="paint28_linear" x1="-2.79116" y1="25.8652" x2="310.011" y2="25.8652" gradientUnits="userSpaceOnUse">
<stop stop-color="#00BBF0"/>
<stop offset="0.1" stop-color="#233C96"/>
<stop offset="0.6" stop-color="#00204A"/>
</linearGradient>
<linearGradient id="paint29_linear" x1="-2.79134" y1="24.2638" x2="310.011" y2="24.2638" gradientUnits="userSpaceOnUse">
<stop stop-color="#00BBF0"/>
<stop offset="0.1" stop-color="#233C96"/>
<stop offset="0.6" stop-color="#00204A"/>
</linearGradient>
<linearGradient id="paint30_linear" x1="-2.79124" y1="25.8602" x2="310.011" y2="25.8602" gradientUnits="userSpaceOnUse">
<stop stop-color="#00BBF0"/>
<stop offset="0.1" stop-color="#233C96"/>
<stop offset="0.6" stop-color="#00204A"/>
</linearGradient>
<linearGradient id="paint31_linear" x1="-2.79163" y1="25.8602" x2="310.011" y2="25.8602" gradientUnits="userSpaceOnUse">
<stop stop-color="#00BBF0"/>
<stop offset="0.1" stop-color="#233C96"/>
<stop offset="0.6" stop-color="#00204A"/>
</linearGradient>
<linearGradient id="paint32_linear" x1="-2.7913" y1="23.839" x2="310.011" y2="23.839" gradientUnits="userSpaceOnUse">
<stop stop-color="#00BBF0"/>
<stop offset="0.1" stop-color="#233C96"/>
<stop offset="0.6" stop-color="#00204A"/>
</linearGradient>
<linearGradient id="paint33_linear" x1="-2.79119" y1="25.8552" x2="310.011" y2="25.8552" gradientUnits="userSpaceOnUse">
<stop stop-color="#00BBF0"/>
<stop offset="0.1" stop-color="#233C96"/>
<stop offset="0.6" stop-color="#00204A"/>
</linearGradient>
<linearGradient id="paint34_linear" x1="-2.79117" y1="25.8652" x2="310.011" y2="25.8652" gradientUnits="userSpaceOnUse">
<stop stop-color="#00BBF0"/>
<stop offset="0.1" stop-color="#233C96"/>
<stop offset="0.6" stop-color="#00204A"/>
</linearGradient>
<linearGradient id="paint35_linear" x1="-2.79117" y1="27.5312" x2="310.011" y2="27.5312" gradientUnits="userSpaceOnUse">
<stop stop-color="#00BBF0"/>
<stop offset="0.1" stop-color="#233C96"/>
<stop offset="0.6" stop-color="#00204A"/>
</linearGradient>
<linearGradient id="paint36_linear" x1="-2.79157" y1="25.8652" x2="310.011" y2="25.8652" gradientUnits="userSpaceOnUse">
<stop stop-color="#00BBF0"/>
<stop offset="0.1" stop-color="#233C96"/>
<stop offset="0.6" stop-color="#00204A"/>
</linearGradient>
<linearGradient id="paint37_linear" x1="-2.79031" y1="25.8602" x2="310.011" y2="25.8602" gradientUnits="userSpaceOnUse">
<stop stop-color="#00BBF0"/>
<stop offset="0.1" stop-color="#233C96"/>
<stop offset="0.6" stop-color="#00204A"/>
</linearGradient>
<linearGradient id="paint38_linear" x1="-2.79208" y1="25.8652" x2="310.011" y2="25.8652" gradientUnits="userSpaceOnUse">
<stop stop-color="#00BBF0"/>
<stop offset="0.1" stop-color="#233C96"/>
<stop offset="0.6" stop-color="#00204A"/>
</linearGradient>
<linearGradient id="paint39_linear" x1="-2.79117" y1="27.5312" x2="310.011" y2="27.5312" gradientUnits="userSpaceOnUse">
<stop stop-color="#00BBF0"/>
<stop offset="0.1" stop-color="#233C96"/>
<stop offset="0.6" stop-color="#00204A"/>
</linearGradient>
<linearGradient id="paint40_linear" x1="-2.79132" y1="25.8602" x2="310.011" y2="25.8602" gradientUnits="userSpaceOnUse">
<stop stop-color="#00BBF0"/>
<stop offset="0.1" stop-color="#233C96"/>
<stop offset="0.6" stop-color="#00204A"/>
</linearGradient>
<linearGradient id="paint41_linear" x1="-2.79131" y1="24.2638" x2="310.011" y2="24.2638" gradientUnits="userSpaceOnUse">
<stop stop-color="#00BBF0"/>
<stop offset="0.1" stop-color="#233C96"/>
<stop offset="0.6" stop-color="#00204A"/>
</linearGradient>
<linearGradient id="paint42_linear" x1="-2.79121" y1="25.8552" x2="310.011" y2="25.8552" gradientUnits="userSpaceOnUse">
<stop stop-color="#00BBF0"/>
<stop offset="0.1" stop-color="#233C96"/>
<stop offset="0.6" stop-color="#00204A"/>
</linearGradient>
<linearGradient id="paint43_linear" x1="-2.79119" y1="25.8602" x2="310.011" y2="25.8602" gradientUnits="userSpaceOnUse">
<stop stop-color="#00BBF0"/>
<stop offset="0.1" stop-color="#233C96"/>
<stop offset="0.6" stop-color="#00204A"/>
</linearGradient>
<linearGradient id="paint44_linear" x1="-2.79129" y1="24.2638" x2="310.011" y2="24.2638" gradientUnits="userSpaceOnUse">
<stop stop-color="#00BBF0"/>
<stop offset="0.1" stop-color="#233C96"/>
<stop offset="0.6" stop-color="#00204A"/>
</linearGradient>
<linearGradient id="paint45_linear" x1="-2.79128" y1="27.5212" x2="310.011" y2="27.5212" gradientUnits="userSpaceOnUse">
<stop stop-color="#00BBF0"/>
<stop offset="0.1" stop-color="#233C96"/>
<stop offset="0.6" stop-color="#00204A"/>
</linearGradient>
<linearGradient id="paint46_linear" x1="-2.7912" y1="25.8602" x2="310.011" y2="25.8602" gradientUnits="userSpaceOnUse">
<stop stop-color="#00BBF0"/>
<stop offset="0.1" stop-color="#233C96"/>
<stop offset="0.6" stop-color="#00204A"/>
</linearGradient>
<linearGradient id="paint47_linear" x1="-2.79119" y1="25.8552" x2="310.011" y2="25.8552" gradientUnits="userSpaceOnUse">
<stop stop-color="#00BBF0"/>
<stop offset="0.1" stop-color="#233C96"/>
<stop offset="0.6" stop-color="#00204A"/>
</linearGradient>
<linearGradient id="paint48_linear" x1="-2.79128" y1="27.5312" x2="310.011" y2="27.5312" gradientUnits="userSpaceOnUse">
<stop stop-color="#00BBF0"/>
<stop offset="0.1" stop-color="#233C96"/>
<stop offset="0.6" stop-color="#00204A"/>
</linearGradient>
<linearGradient id="paint49_linear" x1="-2.79116" y1="25.8652" x2="310.011" y2="25.8652" gradientUnits="userSpaceOnUse">
<stop stop-color="#00BBF0"/>
<stop offset="0.1" stop-color="#233C96"/>
<stop offset="0.6" stop-color="#00204A"/>
</linearGradient>
<linearGradient id="paint50_linear" x1="-2.79134" y1="24.2638" x2="310.011" y2="24.2638" gradientUnits="userSpaceOnUse">
<stop stop-color="#00BBF0"/>
<stop offset="0.1" stop-color="#233C96"/>
<stop offset="0.6" stop-color="#00204A"/>
</linearGradient>
<linearGradient id="paint51_linear" x1="-2.79124" y1="25.8602" x2="310.011" y2="25.8602" gradientUnits="userSpaceOnUse">
<stop stop-color="#00BBF0"/>
<stop offset="0.1" stop-color="#233C96"/>
<stop offset="0.6" stop-color="#00204A"/>
</linearGradient>
<linearGradient id="paint52_linear" x1="-2.79163" y1="25.8602" x2="310.011" y2="25.8602" gradientUnits="userSpaceOnUse">
<stop stop-color="#00BBF0"/>
<stop offset="0.1" stop-color="#233C96"/>
<stop offset="0.6" stop-color="#00204A"/>
</linearGradient>
<linearGradient id="paint53_linear" x1="-2.7913" y1="23.839" x2="310.011" y2="23.839" gradientUnits="userSpaceOnUse">
<stop stop-color="#00BBF0"/>
<stop offset="0.1" stop-color="#233C96"/>
<stop offset="0.6" stop-color="#00204A"/>
</linearGradient>
<linearGradient id="paint54_linear" x1="-2.79119" y1="25.8552" x2="310.011" y2="25.8552" gradientUnits="userSpaceOnUse">
<stop stop-color="#00BBF0"/>
<stop offset="0.1" stop-color="#233C96"/>
<stop offset="0.6" stop-color="#00204A"/>
</linearGradient>
<linearGradient id="paint55_linear" x1="-2.79117" y1="25.8652" x2="310.011" y2="25.8652" gradientUnits="userSpaceOnUse">
<stop stop-color="#00BBF0"/>
<stop offset="0.1" stop-color="#233C96"/>
<stop offset="0.6" stop-color="#00204A"/>
</linearGradient>
<linearGradient id="paint56_linear" x1="-2.79117" y1="27.5312" x2="310.011" y2="27.5312" gradientUnits="userSpaceOnUse">
<stop stop-color="#00BBF0"/>
<stop offset="0.1" stop-color="#233C96"/>
<stop offset="0.6" stop-color="#00204A"/>
</linearGradient>
<linearGradient id="paint57_linear" x1="-2.79157" y1="25.8652" x2="310.011" y2="25.8652" gradientUnits="userSpaceOnUse">
<stop stop-color="#00BBF0"/>
<stop offset="0.1" stop-color="#233C96"/>
<stop offset="0.6" stop-color="#00204A"/>
</linearGradient>
<linearGradient id="paint58_linear" x1="-2.79031" y1="25.8602" x2="310.011" y2="25.8602" gradientUnits="userSpaceOnUse">
<stop stop-color="#00BBF0"/>
<stop offset="0.1" stop-color="#233C96"/>
<stop offset="0.6" stop-color="#00204A"/>
</linearGradient>
<linearGradient id="paint59_linear" x1="-2.79208" y1="25.8652" x2="310.011" y2="25.8652" gradientUnits="userSpaceOnUse">
<stop stop-color="#00BBF0"/>
<stop offset="0.1" stop-color="#233C96"/>
<stop offset="0.6" stop-color="#00204A"/>
</linearGradient>
<linearGradient id="paint60_linear" x1="-2.79117" y1="27.5312" x2="310.011" y2="27.5312" gradientUnits="userSpaceOnUse">
<stop stop-color="#00BBF0"/>
<stop offset="0.1" stop-color="#233C96"/>
<stop offset="0.6" stop-color="#00204A"/>
</linearGradient>
<linearGradient id="paint61_linear" x1="-2.79132" y1="25.8602" x2="310.011" y2="25.8602" gradientUnits="userSpaceOnUse">
<stop stop-color="#00BBF0"/>
<stop offset="0.1" stop-color="#233C96"/>
<stop offset="0.6" stop-color="#00204A"/>
</linearGradient>
<linearGradient id="paint62_linear" x1="-2.79131" y1="24.2638" x2="310.011" y2="24.2638" gradientUnits="userSpaceOnUse">
<stop stop-color="#00BBF0"/>
<stop offset="0.1" stop-color="#233C96"/>
<stop offset="0.6" stop-color="#00204A"/>
</linearGradient>
<linearGradient id="paint63_linear" x1="-2.79121" y1="25.8552" x2="310.011" y2="25.8552" gradientUnits="userSpaceOnUse">
<stop stop-color="#00BBF0"/>
<stop offset="0.1" stop-color="#233C96"/>
<stop offset="0.6" stop-color="#00204A"/>
</linearGradient>
<linearGradient id="paint64_linear" x1="-2.79119" y1="25.8602" x2="310.011" y2="25.8602" gradientUnits="userSpaceOnUse">
<stop stop-color="#00BBF0"/>
<stop offset="0.1" stop-color="#233C96"/>
<stop offset="0.6" stop-color="#00204A"/>
</linearGradient>
<linearGradient id="paint65_linear" x1="-2.79129" y1="24.2638" x2="310.011" y2="24.2638" gradientUnits="userSpaceOnUse">
<stop stop-color="#00BBF0"/>
<stop offset="0.1" stop-color="#233C96"/>
<stop offset="0.6" stop-color="#00204A"/>
</linearGradient>
<linearGradient id="paint66_linear" x1="-2.79128" y1="27.5212" x2="310.011" y2="27.5212" gradientUnits="userSpaceOnUse">
<stop stop-color="#00BBF0"/>
<stop offset="0.1" stop-color="#233C96"/>
<stop offset="0.6" stop-color="#00204A"/>
</linearGradient>
<linearGradient id="paint67_linear" x1="-2.7912" y1="25.8602" x2="310.011" y2="25.8602" gradientUnits="userSpaceOnUse">
<stop stop-color="#00BBF0"/>
<stop offset="0.1" stop-color="#233C96"/>
<stop offset="0.6" stop-color="#00204A"/>
</linearGradient>
<linearGradient id="paint68_linear" x1="-2.79119" y1="25.8552" x2="310.011" y2="25.8552" gradientUnits="userSpaceOnUse">
<stop stop-color="#00BBF0"/>
<stop offset="0.1" stop-color="#233C96"/>
<stop offset="0.6" stop-color="#00204A"/>
</linearGradient>
<linearGradient id="paint69_linear" x1="-2.79128" y1="27.5312" x2="310.011" y2="27.5312" gradientUnits="userSpaceOnUse">
<stop stop-color="#00BBF0"/>
<stop offset="0.1" stop-color="#233C96"/>
<stop offset="0.6" stop-color="#00204A"/>
</linearGradient>
<linearGradient id="paint70_linear" x1="-2.79116" y1="25.8652" x2="310.011" y2="25.8652" gradientUnits="userSpaceOnUse">
<stop stop-color="#00BBF0"/>
<stop offset="0.1" stop-color="#233C96"/>
<stop offset="0.6" stop-color="#00204A"/>
</linearGradient>
<linearGradient id="paint71_linear" x1="-2.79134" y1="24.2638" x2="310.011" y2="24.2638" gradientUnits="userSpaceOnUse">
<stop stop-color="#00BBF0"/>
<stop offset="0.1" stop-color="#233C96"/>
<stop offset="0.6" stop-color="#00204A"/>
</linearGradient>
<linearGradient id="paint72_linear" x1="-2.79124" y1="25.8602" x2="310.011" y2="25.8602" gradientUnits="userSpaceOnUse">
<stop stop-color="#00BBF0"/>
<stop offset="0.1" stop-color="#233C96"/>
<stop offset="0.6" stop-color="#00204A"/>
</linearGradient>
<linearGradient id="paint73_linear" x1="-2.79163" y1="25.8602" x2="310.011" y2="25.8602" gradientUnits="userSpaceOnUse">
<stop stop-color="#00BBF0"/>
<stop offset="0.1" stop-color="#233C96"/>
<stop offset="0.6" stop-color="#00204A"/>
</linearGradient>
<linearGradient id="paint74_linear" x1="-2.7913" y1="23.839" x2="310.011" y2="23.839" gradientUnits="userSpaceOnUse">
<stop stop-color="#00BBF0"/>
<stop offset="0.1" stop-color="#233C96"/>
<stop offset="0.6" stop-color="#00204A"/>
</linearGradient>
<linearGradient id="paint75_linear" x1="-2.79119" y1="25.8552" x2="310.011" y2="25.8552" gradientUnits="userSpaceOnUse">
<stop stop-color="#00BBF0"/>
<stop offset="0.1" stop-color="#233C96"/>
<stop offset="0.6" stop-color="#00204A"/>
</linearGradient>
<linearGradient id="paint76_linear" x1="-2.79117" y1="25.8652" x2="310.011" y2="25.8652" gradientUnits="userSpaceOnUse">
<stop stop-color="#00BBF0"/>
<stop offset="0.1" stop-color="#233C96"/>
<stop offset="0.6" stop-color="#00204A"/>
</linearGradient>
<linearGradient id="paint77_linear" x1="-2.79117" y1="27.5312" x2="310.011" y2="27.5312" gradientUnits="userSpaceOnUse">
<stop stop-color="#00BBF0"/>
<stop offset="0.1" stop-color="#233C96"/>
<stop offset="0.6" stop-color="#00204A"/>
</linearGradient>
<linearGradient id="paint78_linear" x1="-2.79157" y1="25.8652" x2="310.011" y2="25.8652" gradientUnits="userSpaceOnUse">
<stop stop-color="#00BBF0"/>
<stop offset="0.1" stop-color="#233C96"/>
<stop offset="0.6" stop-color="#00204A"/>
</linearGradient>
<linearGradient id="paint79_linear" x1="-2.79031" y1="25.8602" x2="310.011" y2="25.8602" gradientUnits="userSpaceOnUse">
<stop stop-color="#00BBF0"/>
<stop offset="0.1" stop-color="#233C96"/>
<stop offset="0.6" stop-color="#00204A"/>
</linearGradient>
<linearGradient id="paint80_linear" x1="-2.79208" y1="25.8652" x2="310.011" y2="25.8652" gradientUnits="userSpaceOnUse">
<stop stop-color="#00BBF0"/>
<stop offset="0.1" stop-color="#233C96"/>
<stop offset="0.6" stop-color="#00204A"/>
</linearGradient>
<linearGradient id="paint81_linear" x1="-2.79117" y1="27.5312" x2="310.011" y2="27.5312" gradientUnits="userSpaceOnUse">
<stop stop-color="#00BBF0"/>
<stop offset="0.1" stop-color="#233C96"/>
<stop offset="0.6" stop-color="#00204A"/>
</linearGradient>
<linearGradient id="paint82_linear" x1="-2.79132" y1="25.8602" x2="310.011" y2="25.8602" gradientUnits="userSpaceOnUse">
<stop stop-color="#00BBF0"/>
<stop offset="0.1" stop-color="#233C96"/>
<stop offset="0.6" stop-color="#00204A"/>
</linearGradient>
<clipPath id="clip0">
<rect width="310" height="34" fill="white"/>
</clipPath>
</defs>
</svg>
